ISO-10303-21;
HEADER;
/* Generated by software containing ST-Developer
 * from STEP Tools, Inc. (www.steptools.com) 
 */
/* OPTION: using custom renumber hook */

FILE_DESCRIPTION(
/* description */ ('STEP AP242 Edition 2',
'CAx-IF Rec.Pracs.---Representation and Presentation of Product Manufa
cturing Information (PMI)---4.0---2014-10-13',
'CAx-IF Rec.Pracs.---3D Tessellated Geometry---0.4---2014-09-14','2;1',
'CAx-IF Rec.Pracs.---User Defined Attributes---1.5---2016-08-15'),
/* implementation_level */ '2;1');

FILE_NAME(
/* name */ 'USB HUB',
/* time_stamp */ '2026-06-19T02:23:37Z',
/* author */ (''),
/* organization */ (''),
/* preprocessor_version */ 'ST-DEVELOPER v20',
/* originating_system */ 'ONSHAPE BY PTC INC, 1.216',
/* authorisation */ '  ');

FILE_SCHEMA (('AP242_MANAGED_MODEL_BASED_3D_ENGINEERING_MIM_LF { 1 0 10303 442 3 1 4 }'));
ENDSEC;

DATA;
#10=SHAPE_REPRESENTATION_RELATIONSHIP('','',#1121,#11);
#11=ADVANCED_BREP_SHAPE_REPRESENTATION('',(#1119),#1811);
#12=CYLINDRICAL_SURFACE('',#1171,0.00127);
#13=CYLINDRICAL_SURFACE('',#1172,0.00127);
#14=CYLINDRICAL_SURFACE('',#1173,0.00127);
#15=CYLINDRICAL_SURFACE('',#1174,0.00127);
#16=CYLINDRICAL_SURFACE('',#1190,0.00127);
#17=CYLINDRICAL_SURFACE('',#1191,0.00127);
#18=CYLINDRICAL_SURFACE('',#1192,0.00127);
#19=CYLINDRICAL_SURFACE('',#1193,0.00127);
#20=CYLINDRICAL_SURFACE('',#1194,0.00127);
#21=CYLINDRICAL_SURFACE('',#1195,0.00127);
#22=CYLINDRICAL_SURFACE('',#1196,0.00127);
#23=CYLINDRICAL_SURFACE('',#1197,0.00127);
#24=ELLIPSE('',#1136,0.00127025827809968,0.00127);
#25=ELLIPSE('',#1137,0.00127025827809968,0.00127);
#26=ELLIPSE('',#1138,0.00127025827809968,0.00127);
#27=ELLIPSE('',#1139,0.00127025827809968,0.00127);
#28=CIRCLE('',#1126,0.00127);
#29=CIRCLE('',#1127,0.00127);
#30=CIRCLE('',#1128,0.00127);
#31=CIRCLE('',#1129,0.00127);
#32=CIRCLE('',#1131,0.00127);
#33=CIRCLE('',#1132,0.00127);
#34=CIRCLE('',#1133,0.00127);
#35=CIRCLE('',#1134,0.00127);
#36=CIRCLE('',#1141,0.00127);
#37=CIRCLE('',#1142,0.00127);
#38=CIRCLE('',#1143,0.00127);
#39=CIRCLE('',#1144,0.00127);
#40=CIRCLE('',#1146,0.00127);
#41=CIRCLE('',#1147,0.00127);
#42=CIRCLE('',#1148,0.00127);
#43=CIRCLE('',#1149,0.00127);
#44=CIRCLE('',#1151,0.00127);
#45=CIRCLE('',#1152,0.00127);
#46=CIRCLE('',#1153,0.00127);
#47=CIRCLE('',#1154,0.00127);
#48=ORIENTED_EDGE('',*,*,#360,.T.);
#49=ORIENTED_EDGE('',*,*,#361,.F.);
#50=ORIENTED_EDGE('',*,*,#362,.F.);
#51=ORIENTED_EDGE('',*,*,#363,.T.);
#52=ORIENTED_EDGE('',*,*,#364,.F.);
#53=ORIENTED_EDGE('',*,*,#365,.T.);
#54=ORIENTED_EDGE('',*,*,#366,.T.);
#55=ORIENTED_EDGE('',*,*,#367,.F.);
#56=ORIENTED_EDGE('',*,*,#368,.T.);
#57=ORIENTED_EDGE('',*,*,#369,.F.);
#58=ORIENTED_EDGE('',*,*,#370,.F.);
#59=ORIENTED_EDGE('',*,*,#371,.T.);
#60=ORIENTED_EDGE('',*,*,#372,.F.);
#61=ORIENTED_EDGE('',*,*,#373,.T.);
#62=ORIENTED_EDGE('',*,*,#374,.T.);
#63=ORIENTED_EDGE('',*,*,#375,.F.);
#64=ORIENTED_EDGE('',*,*,#376,.T.);
#65=ORIENTED_EDGE('',*,*,#377,.F.);
#66=ORIENTED_EDGE('',*,*,#378,.F.);
#67=ORIENTED_EDGE('',*,*,#379,.T.);
#68=ORIENTED_EDGE('',*,*,#380,.F.);
#69=ORIENTED_EDGE('',*,*,#381,.T.);
#70=ORIENTED_EDGE('',*,*,#382,.T.);
#71=ORIENTED_EDGE('',*,*,#383,.T.);
#72=ORIENTED_EDGE('',*,*,#384,.T.);
#73=ORIENTED_EDGE('',*,*,#385,.T.);
#74=ORIENTED_EDGE('',*,*,#386,.F.);
#75=ORIENTED_EDGE('',*,*,#387,.T.);
#76=ORIENTED_EDGE('',*,*,#388,.T.);
#77=ORIENTED_EDGE('',*,*,#389,.F.);
#78=ORIENTED_EDGE('',*,*,#390,.F.);
#79=ORIENTED_EDGE('',*,*,#391,.T.);
#80=ORIENTED_EDGE('',*,*,#392,.F.);
#81=ORIENTED_EDGE('',*,*,#393,.T.);
#82=ORIENTED_EDGE('',*,*,#394,.T.);
#83=ORIENTED_EDGE('',*,*,#395,.T.);
#84=ORIENTED_EDGE('',*,*,#396,.T.);
#85=ORIENTED_EDGE('',*,*,#397,.T.);
#86=ORIENTED_EDGE('',*,*,#398,.F.);
#87=ORIENTED_EDGE('',*,*,#399,.T.);
#88=ORIENTED_EDGE('',*,*,#400,.T.);
#89=ORIENTED_EDGE('',*,*,#401,.F.);
#90=ORIENTED_EDGE('',*,*,#402,.F.);
#91=ORIENTED_EDGE('',*,*,#403,.T.);
#92=ORIENTED_EDGE('',*,*,#404,.F.);
#93=ORIENTED_EDGE('',*,*,#405,.T.);
#94=ORIENTED_EDGE('',*,*,#406,.T.);
#95=ORIENTED_EDGE('',*,*,#407,.T.);
#96=ORIENTED_EDGE('',*,*,#408,.T.);
#97=ORIENTED_EDGE('',*,*,#409,.T.);
#98=ORIENTED_EDGE('',*,*,#410,.F.);
#99=ORIENTED_EDGE('',*,*,#411,.T.);
#100=ORIENTED_EDGE('',*,*,#412,.T.);
#101=ORIENTED_EDGE('',*,*,#413,.F.);
#102=ORIENTED_EDGE('',*,*,#414,.F.);
#103=ORIENTED_EDGE('',*,*,#415,.T.);
#104=ORIENTED_EDGE('',*,*,#416,.F.);
#105=ORIENTED_EDGE('',*,*,#417,.T.);
#106=ORIENTED_EDGE('',*,*,#418,.T.);
#107=ORIENTED_EDGE('',*,*,#419,.T.);
#108=ORIENTED_EDGE('',*,*,#420,.T.);
#109=ORIENTED_EDGE('',*,*,#421,.T.);
#110=ORIENTED_EDGE('',*,*,#422,.F.);
#111=ORIENTED_EDGE('',*,*,#423,.T.);
#112=ORIENTED_EDGE('',*,*,#424,.T.);
#113=ORIENTED_EDGE('',*,*,#403,.F.);
#114=ORIENTED_EDGE('',*,*,#425,.F.);
#115=ORIENTED_EDGE('',*,*,#426,.T.);
#116=ORIENTED_EDGE('',*,*,#427,.F.);
#117=ORIENTED_EDGE('',*,*,#428,.T.);
#118=ORIENTED_EDGE('',*,*,#429,.T.);
#119=ORIENTED_EDGE('',*,*,#430,.T.);
#120=ORIENTED_EDGE('',*,*,#431,.T.);
#121=ORIENTED_EDGE('',*,*,#432,.T.);
#122=ORIENTED_EDGE('',*,*,#433,.F.);
#123=ORIENTED_EDGE('',*,*,#434,.T.);
#124=ORIENTED_EDGE('',*,*,#414,.T.);
#125=ORIENTED_EDGE('',*,*,#435,.F.);
#126=ORIENTED_EDGE('',*,*,#436,.F.);
#127=ORIENTED_EDGE('',*,*,#437,.T.);
#128=ORIENTED_EDGE('',*,*,#438,.F.);
#129=ORIENTED_EDGE('',*,*,#439,.T.);
#130=ORIENTED_EDGE('',*,*,#440,.T.);
#131=ORIENTED_EDGE('',*,*,#441,.T.);
#132=ORIENTED_EDGE('',*,*,#442,.T.);
#133=ORIENTED_EDGE('',*,*,#443,.T.);
#134=ORIENTED_EDGE('',*,*,#444,.F.);
#135=ORIENTED_EDGE('',*,*,#445,.T.);
#136=ORIENTED_EDGE('',*,*,#446,.T.);
#137=ORIENTED_EDGE('',*,*,#426,.F.);
#138=ORIENTED_EDGE('',*,*,#447,.F.);
#139=ORIENTED_EDGE('',*,*,#377,.T.);
#140=ORIENTED_EDGE('',*,*,#448,.T.);
#141=ORIENTED_EDGE('',*,*,#449,.F.);
#142=ORIENTED_EDGE('',*,*,#450,.F.);
#143=ORIENTED_EDGE('',*,*,#401,.T.);
#144=ORIENTED_EDGE('',*,*,#451,.T.);
#145=ORIENTED_EDGE('',*,*,#363,.F.);
#146=ORIENTED_EDGE('',*,*,#452,.F.);
#147=ORIENTED_EDGE('',*,*,#449,.T.);
#148=ORIENTED_EDGE('',*,*,#453,.T.);
#149=ORIENTED_EDGE('',*,*,#454,.F.);
#150=ORIENTED_EDGE('',*,*,#455,.F.);
#151=ORIENTED_EDGE('',*,*,#361,.T.);
#152=ORIENTED_EDGE('',*,*,#456,.F.);
#153=ORIENTED_EDGE('',*,*,#457,.T.);
#154=ORIENTED_EDGE('',*,*,#458,.T.);
#155=ORIENTED_EDGE('',*,*,#459,.F.);
#156=ORIENTED_EDGE('',*,*,#460,.F.);
#157=ORIENTED_EDGE('',*,*,#454,.T.);
#158=ORIENTED_EDGE('',*,*,#461,.T.);
#159=ORIENTED_EDGE('',*,*,#462,.F.);
#160=ORIENTED_EDGE('',*,*,#436,.T.);
#161=ORIENTED_EDGE('',*,*,#463,.F.);
#162=ORIENTED_EDGE('',*,*,#388,.F.);
#163=ORIENTED_EDGE('',*,*,#464,.T.);
#164=ORIENTED_EDGE('',*,*,#390,.T.);
#165=ORIENTED_EDGE('',*,*,#465,.F.);
#166=ORIENTED_EDGE('',*,*,#466,.F.);
#167=ORIENTED_EDGE('',*,*,#467,.T.);
#168=ORIENTED_EDGE('',*,*,#468,.F.);
#169=ORIENTED_EDGE('',*,*,#469,.T.);
#170=ORIENTED_EDGE('',*,*,#470,.F.);
#171=ORIENTED_EDGE('',*,*,#471,.F.);
#172=ORIENTED_EDGE('',*,*,#472,.F.);
#173=ORIENTED_EDGE('',*,*,#473,.T.);
#174=ORIENTED_EDGE('',*,*,#466,.T.);
#175=ORIENTED_EDGE('',*,*,#474,.F.);
#176=ORIENTED_EDGE('',*,*,#472,.T.);
#177=ORIENTED_EDGE('',*,*,#475,.F.);
#178=ORIENTED_EDGE('',*,*,#368,.F.);
#179=ORIENTED_EDGE('',*,*,#476,.T.);
#180=ORIENTED_EDGE('',*,*,#370,.T.);
#181=ORIENTED_EDGE('',*,*,#477,.F.);
#182=ORIENTED_EDGE('',*,*,#478,.F.);
#183=ORIENTED_EDGE('',*,*,#479,.T.);
#184=ORIENTED_EDGE('',*,*,#478,.T.);
#185=ORIENTED_EDGE('',*,*,#480,.F.);
#186=ORIENTED_EDGE('',*,*,#412,.F.);
#187=ORIENTED_EDGE('',*,*,#481,.T.);
#188=ORIENTED_EDGE('',*,*,#482,.T.);
#189=ORIENTED_EDGE('',*,*,#379,.F.);
#190=ORIENTED_EDGE('',*,*,#483,.F.);
#191=ORIENTED_EDGE('',*,*,#462,.T.);
#192=ORIENTED_EDGE('',*,*,#427,.T.);
#193=ORIENTED_EDGE('',*,*,#484,.T.);
#194=ORIENTED_EDGE('',*,*,#440,.F.);
#195=ORIENTED_EDGE('',*,*,#485,.T.);
#196=ORIENTED_EDGE('',*,*,#429,.F.);
#197=ORIENTED_EDGE('',*,*,#486,.T.);
#198=ORIENTED_EDGE('',*,*,#438,.T.);
#199=ORIENTED_EDGE('',*,*,#487,.T.);
#200=ORIENTED_EDGE('',*,*,#444,.T.);
#201=ORIENTED_EDGE('',*,*,#488,.T.);
#202=ORIENTED_EDGE('',*,*,#431,.F.);
#203=ORIENTED_EDGE('',*,*,#489,.T.);
#204=ORIENTED_EDGE('',*,*,#442,.F.);
#205=ORIENTED_EDGE('',*,*,#490,.T.);
#206=ORIENTED_EDGE('',*,*,#433,.T.);
#207=ORIENTED_EDGE('',*,*,#491,.T.);
#208=ORIENTED_EDGE('',*,*,#434,.F.);
#209=ORIENTED_EDGE('',*,*,#490,.F.);
#210=ORIENTED_EDGE('',*,*,#441,.F.);
#211=ORIENTED_EDGE('',*,*,#484,.F.);
#212=ORIENTED_EDGE('',*,*,#428,.F.);
#213=ORIENTED_EDGE('',*,*,#485,.F.);
#214=ORIENTED_EDGE('',*,*,#439,.F.);
#215=ORIENTED_EDGE('',*,*,#486,.F.);
#216=ORIENTED_EDGE('',*,*,#432,.F.);
#217=ORIENTED_EDGE('',*,*,#488,.F.);
#218=ORIENTED_EDGE('',*,*,#443,.F.);
#219=ORIENTED_EDGE('',*,*,#491,.F.);
#220=ORIENTED_EDGE('',*,*,#430,.F.);
#221=ORIENTED_EDGE('',*,*,#487,.F.);
#222=ORIENTED_EDGE('',*,*,#445,.F.);
#223=ORIENTED_EDGE('',*,*,#489,.F.);
#224=ORIENTED_EDGE('',*,*,#418,.F.);
#225=ORIENTED_EDGE('',*,*,#492,.T.);
#226=ORIENTED_EDGE('',*,*,#404,.T.);
#227=ORIENTED_EDGE('',*,*,#493,.T.);
#228=ORIENTED_EDGE('',*,*,#406,.F.);
#229=ORIENTED_EDGE('',*,*,#494,.T.);
#230=ORIENTED_EDGE('',*,*,#416,.T.);
#231=ORIENTED_EDGE('',*,*,#495,.T.);
#232=ORIENTED_EDGE('',*,*,#422,.T.);
#233=ORIENTED_EDGE('',*,*,#496,.T.);
#234=ORIENTED_EDGE('',*,*,#408,.F.);
#235=ORIENTED_EDGE('',*,*,#497,.T.);
#236=ORIENTED_EDGE('',*,*,#420,.F.);
#237=ORIENTED_EDGE('',*,*,#498,.T.);
#238=ORIENTED_EDGE('',*,*,#410,.T.);
#239=ORIENTED_EDGE('',*,*,#499,.T.);
#240=ORIENTED_EDGE('',*,*,#380,.T.);
#241=ORIENTED_EDGE('',*,*,#500,.T.);
#242=ORIENTED_EDGE('',*,*,#394,.F.);
#243=ORIENTED_EDGE('',*,*,#501,.T.);
#244=ORIENTED_EDGE('',*,*,#392,.T.);
#245=ORIENTED_EDGE('',*,*,#502,.T.);
#246=ORIENTED_EDGE('',*,*,#382,.F.);
#247=ORIENTED_EDGE('',*,*,#503,.T.);
#248=ORIENTED_EDGE('',*,*,#384,.F.);
#249=ORIENTED_EDGE('',*,*,#504,.T.);
#250=ORIENTED_EDGE('',*,*,#398,.T.);
#251=ORIENTED_EDGE('',*,*,#505,.T.);
#252=ORIENTED_EDGE('',*,*,#386,.T.);
#253=ORIENTED_EDGE('',*,*,#506,.T.);
#254=ORIENTED_EDGE('',*,*,#396,.F.);
#255=ORIENTED_EDGE('',*,*,#507,.T.);
#256=ORIENTED_EDGE('',*,*,#508,.T.);
#257=ORIENTED_EDGE('',*,*,#470,.T.);
#258=ORIENTED_EDGE('',*,*,#509,.F.);
#259=ORIENTED_EDGE('',*,*,#458,.F.);
#260=ORIENTED_EDGE('',*,*,#510,.T.);
#261=ORIENTED_EDGE('',*,*,#471,.T.);
#262=ORIENTED_EDGE('',*,*,#508,.F.);
#263=ORIENTED_EDGE('',*,*,#457,.F.);
#264=ORIENTED_EDGE('',*,*,#459,.T.);
#265=ORIENTED_EDGE('',*,*,#509,.T.);
#266=ORIENTED_EDGE('',*,*,#469,.F.);
#267=ORIENTED_EDGE('',*,*,#511,.F.);
#268=ORIENTED_EDGE('',*,*,#364,.T.);
#269=ORIENTED_EDGE('',*,*,#512,.T.);
#270=ORIENTED_EDGE('',*,*,#373,.F.);
#271=ORIENTED_EDGE('',*,*,#513,.F.);
#272=ORIENTED_EDGE('',*,*,#513,.T.);
#273=ORIENTED_EDGE('',*,*,#372,.T.);
#274=ORIENTED_EDGE('',*,*,#514,.F.);
#275=ORIENTED_EDGE('',*,*,#365,.F.);
#276=ORIENTED_EDGE('',*,*,#514,.T.);
#277=ORIENTED_EDGE('',*,*,#375,.T.);
#278=ORIENTED_EDGE('',*,*,#515,.F.);
#279=ORIENTED_EDGE('',*,*,#366,.F.);
#280=ORIENTED_EDGE('',*,*,#367,.T.);
#281=ORIENTED_EDGE('',*,*,#515,.T.);
#282=ORIENTED_EDGE('',*,*,#374,.F.);
#283=ORIENTED_EDGE('',*,*,#512,.F.);
#284=ORIENTED_EDGE('',*,*,#405,.F.);
#285=ORIENTED_EDGE('',*,*,#492,.F.);
#286=ORIENTED_EDGE('',*,*,#417,.F.);
#287=ORIENTED_EDGE('',*,*,#494,.F.);
#288=ORIENTED_EDGE('',*,*,#411,.F.);
#289=ORIENTED_EDGE('',*,*,#498,.F.);
#290=ORIENTED_EDGE('',*,*,#419,.F.);
#291=ORIENTED_EDGE('',*,*,#493,.F.);
#292=ORIENTED_EDGE('',*,*,#409,.F.);
#293=ORIENTED_EDGE('',*,*,#496,.F.);
#294=ORIENTED_EDGE('',*,*,#421,.F.);
#295=ORIENTED_EDGE('',*,*,#499,.F.);
#296=ORIENTED_EDGE('',*,*,#407,.F.);
#297=ORIENTED_EDGE('',*,*,#495,.F.);
#298=ORIENTED_EDGE('',*,*,#423,.F.);
#299=ORIENTED_EDGE('',*,*,#497,.F.);
#300=ORIENTED_EDGE('',*,*,#383,.F.);
#301=ORIENTED_EDGE('',*,*,#502,.F.);
#302=ORIENTED_EDGE('',*,*,#399,.F.);
#303=ORIENTED_EDGE('',*,*,#504,.F.);
#304=ORIENTED_EDGE('',*,*,#385,.F.);
#305=ORIENTED_EDGE('',*,*,#505,.F.);
#306=ORIENTED_EDGE('',*,*,#397,.F.);
#307=ORIENTED_EDGE('',*,*,#506,.F.);
#308=ORIENTED_EDGE('',*,*,#387,.F.);
#309=ORIENTED_EDGE('',*,*,#507,.F.);
#310=ORIENTED_EDGE('',*,*,#395,.F.);
#311=ORIENTED_EDGE('',*,*,#500,.F.);
#312=ORIENTED_EDGE('',*,*,#381,.F.);
#313=ORIENTED_EDGE('',*,*,#501,.F.);
#314=ORIENTED_EDGE('',*,*,#393,.F.);
#315=ORIENTED_EDGE('',*,*,#503,.F.);
#316=ORIENTED_EDGE('',*,*,#376,.F.);
#317=ORIENTED_EDGE('',*,*,#482,.F.);
#318=ORIENTED_EDGE('',*,*,#461,.F.);
#319=ORIENTED_EDGE('',*,*,#453,.F.);
#320=ORIENTED_EDGE('',*,*,#360,.F.);
#321=ORIENTED_EDGE('',*,*,#451,.F.);
#322=ORIENTED_EDGE('',*,*,#448,.F.);
#323=ORIENTED_EDGE('',*,*,#400,.F.);
#324=ORIENTED_EDGE('',*,*,#424,.F.);
#325=ORIENTED_EDGE('',*,*,#446,.F.);
#326=ORIENTED_EDGE('',*,*,#463,.T.);
#327=ORIENTED_EDGE('',*,*,#435,.T.);
#328=ORIENTED_EDGE('',*,*,#413,.T.);
#329=ORIENTED_EDGE('',*,*,#480,.T.);
#330=ORIENTED_EDGE('',*,*,#477,.T.);
#331=ORIENTED_EDGE('',*,*,#369,.T.);
#332=ORIENTED_EDGE('',*,*,#475,.T.);
#333=ORIENTED_EDGE('',*,*,#474,.T.);
#334=ORIENTED_EDGE('',*,*,#465,.T.);
#335=ORIENTED_EDGE('',*,*,#389,.T.);
#336=ORIENTED_EDGE('',*,*,#460,.T.);
#337=ORIENTED_EDGE('',*,*,#511,.T.);
#338=ORIENTED_EDGE('',*,*,#468,.T.);
#339=ORIENTED_EDGE('',*,*,#510,.F.);
#340=ORIENTED_EDGE('',*,*,#456,.T.);
#341=ORIENTED_EDGE('',*,*,#483,.T.);
#342=ORIENTED_EDGE('',*,*,#378,.T.);
#343=ORIENTED_EDGE('',*,*,#447,.T.);
#344=ORIENTED_EDGE('',*,*,#425,.T.);
#345=ORIENTED_EDGE('',*,*,#402,.T.);
#346=ORIENTED_EDGE('',*,*,#450,.T.);
#347=ORIENTED_EDGE('',*,*,#452,.T.);
#348=ORIENTED_EDGE('',*,*,#362,.T.);
#349=ORIENTED_EDGE('',*,*,#455,.T.);
#350=ORIENTED_EDGE('',*,*,#467,.F.);
#351=ORIENTED_EDGE('',*,*,#473,.F.);
#352=ORIENTED_EDGE('',*,*,#476,.F.);
#353=ORIENTED_EDGE('',*,*,#371,.F.);
#354=ORIENTED_EDGE('',*,*,#479,.F.);
#355=ORIENTED_EDGE('',*,*,#481,.F.);
#356=ORIENTED_EDGE('',*,*,#415,.F.);
#357=ORIENTED_EDGE('',*,*,#437,.F.);
#358=ORIENTED_EDGE('',*,*,#464,.F.);
#359=ORIENTED_EDGE('',*,*,#391,.F.);
#360=EDGE_CURVE('',#516,#517,#620,.T.);
#361=EDGE_CURVE('',#518,#517,#621,.T.);
#362=EDGE_CURVE('',#519,#518,#622,.T.);
#363=EDGE_CURVE('',#519,#516,#623,.T.);
#364=EDGE_CURVE('',#520,#521,#624,.T.);
#365=EDGE_CURVE('',#520,#522,#625,.T.);
#366=EDGE_CURVE('',#522,#523,#626,.T.);
#367=EDGE_CURVE('',#521,#523,#627,.T.);
#368=EDGE_CURVE('',#524,#525,#628,.T.);
#369=EDGE_CURVE('',#526,#525,#629,.T.);
#370=EDGE_CURVE('',#527,#526,#630,.T.);
#371=EDGE_CURVE('',#527,#524,#631,.T.);
#372=EDGE_CURVE('',#528,#529,#632,.T.);
#373=EDGE_CURVE('',#528,#530,#633,.T.);
#374=EDGE_CURVE('',#530,#531,#634,.T.);
#375=EDGE_CURVE('',#529,#531,#635,.T.);
#376=EDGE_CURVE('',#532,#533,#636,.T.);
#377=EDGE_CURVE('',#534,#533,#637,.T.);
#378=EDGE_CURVE('',#535,#534,#638,.T.);
#379=EDGE_CURVE('',#535,#532,#639,.T.);
#380=EDGE_CURVE('',#536,#537,#640,.T.);
#381=EDGE_CURVE('',#536,#538,#28,.T.);
#382=EDGE_CURVE('',#538,#539,#641,.T.);
#383=EDGE_CURVE('',#539,#540,#29,.T.);
#384=EDGE_CURVE('',#540,#541,#642,.T.);
#385=EDGE_CURVE('',#541,#542,#30,.T.);
#386=EDGE_CURVE('',#543,#542,#643,.T.);
#387=EDGE_CURVE('',#543,#537,#31,.T.);
#388=EDGE_CURVE('',#544,#545,#644,.T.);
#389=EDGE_CURVE('',#546,#545,#645,.T.);
#390=EDGE_CURVE('',#547,#546,#646,.T.);
#391=EDGE_CURVE('',#547,#544,#647,.T.);
#392=EDGE_CURVE('',#548,#549,#648,.T.);
#393=EDGE_CURVE('',#548,#550,#32,.F.);
#394=EDGE_CURVE('',#550,#551,#649,.T.);
#395=EDGE_CURVE('',#551,#552,#33,.F.);
#396=EDGE_CURVE('',#552,#553,#650,.T.);
#397=EDGE_CURVE('',#553,#554,#34,.F.);
#398=EDGE_CURVE('',#555,#554,#651,.T.);
#399=EDGE_CURVE('',#555,#549,#35,.F.);
#400=EDGE_CURVE('',#556,#557,#652,.T.);
#401=EDGE_CURVE('',#558,#557,#653,.T.);
#402=EDGE_CURVE('',#559,#558,#654,.T.);
#403=EDGE_CURVE('',#559,#556,#655,.T.);
#404=EDGE_CURVE('',#560,#561,#656,.T.);
#405=EDGE_CURVE('',#560,#562,#24,.T.);
#406=EDGE_CURVE('',#562,#563,#657,.T.);
#407=EDGE_CURVE('',#563,#564,#25,.T.);
#408=EDGE_CURVE('',#564,#565,#658,.T.);
#409=EDGE_CURVE('',#565,#566,#26,.T.);
#410=EDGE_CURVE('',#567,#566,#659,.T.);
#411=EDGE_CURVE('',#567,#561,#27,.T.);
#412=EDGE_CURVE('',#568,#569,#660,.T.);
#413=EDGE_CURVE('',#570,#569,#661,.T.);
#414=EDGE_CURVE('',#571,#570,#662,.T.);
#415=EDGE_CURVE('',#571,#568,#663,.T.);
#416=EDGE_CURVE('',#572,#573,#664,.T.);
#417=EDGE_CURVE('',#572,#574,#36,.F.);
#418=EDGE_CURVE('',#574,#575,#665,.T.);
#419=EDGE_CURVE('',#575,#576,#37,.F.);
#420=EDGE_CURVE('',#576,#577,#666,.T.);
#421=EDGE_CURVE('',#577,#578,#38,.F.);
#422=EDGE_CURVE('',#579,#578,#667,.T.);
#423=EDGE_CURVE('',#579,#573,#39,.F.);
#424=EDGE_CURVE('',#580,#556,#668,.T.);
#425=EDGE_CURVE('',#581,#559,#669,.T.);
#426=EDGE_CURVE('',#581,#580,#670,.T.);
#427=EDGE_CURVE('',#582,#583,#671,.T.);
#428=EDGE_CURVE('',#582,#584,#40,.T.);
#429=EDGE_CURVE('',#584,#585,#672,.T.);
#430=EDGE_CURVE('',#585,#586,#41,.T.);
#431=EDGE_CURVE('',#586,#587,#673,.T.);
#432=EDGE_CURVE('',#587,#588,#42,.T.);
#433=EDGE_CURVE('',#589,#588,#674,.T.);
#434=EDGE_CURVE('',#589,#583,#43,.T.);
#435=EDGE_CURVE('',#590,#570,#675,.T.);
#436=EDGE_CURVE('',#591,#590,#676,.T.);
#437=EDGE_CURVE('',#591,#571,#677,.T.);
#438=EDGE_CURVE('',#592,#593,#678,.T.);
#439=EDGE_CURVE('',#592,#594,#44,.F.);
#440=EDGE_CURVE('',#594,#595,#679,.T.);
#441=EDGE_CURVE('',#595,#596,#45,.F.);
#442=EDGE_CURVE('',#596,#597,#680,.T.);
#443=EDGE_CURVE('',#597,#598,#46,.F.);
#444=EDGE_CURVE('',#599,#598,#681,.T.);
#445=EDGE_CURVE('',#599,#593,#47,.F.);
#446=EDGE_CURVE('',#533,#580,#682,.T.);
#447=EDGE_CURVE('',#534,#581,#683,.T.);
#448=EDGE_CURVE('',#557,#600,#684,.T.);
#449=EDGE_CURVE('',#601,#600,#685,.T.);
#450=EDGE_CURVE('',#558,#601,#686,.T.);
#451=EDGE_CURVE('',#600,#516,#687,.T.);
#452=EDGE_CURVE('',#601,#519,#688,.T.);
#453=EDGE_CURVE('',#517,#602,#689,.T.);
#454=EDGE_CURVE('',#603,#602,#690,.T.);
#455=EDGE_CURVE('',#518,#603,#691,.T.);
#456=EDGE_CURVE('',#604,#605,#692,.T.);
#457=EDGE_CURVE('',#604,#606,#693,.T.);
#458=EDGE_CURVE('',#606,#607,#694,.T.);
#459=EDGE_CURVE('',#608,#607,#695,.T.);
#460=EDGE_CURVE('',#603,#608,#696,.T.);
#461=EDGE_CURVE('',#602,#609,#697,.T.);
#462=EDGE_CURVE('',#605,#609,#698,.T.);
#463=EDGE_CURVE('',#545,#590,#699,.T.);
#464=EDGE_CURVE('',#544,#591,#700,.T.);
#465=EDGE_CURVE('',#610,#546,#701,.T.);
#466=EDGE_CURVE('',#611,#610,#702,.T.);
#467=EDGE_CURVE('',#611,#547,#703,.T.);
#468=EDGE_CURVE('',#612,#613,#704,.T.);
#469=EDGE_CURVE('',#612,#614,#705,.T.);
#470=EDGE_CURVE('',#615,#614,#706,.T.);
#471=EDGE_CURVE('',#613,#615,#707,.T.);
#472=EDGE_CURVE('',#616,#617,#708,.T.);
#473=EDGE_CURVE('',#616,#611,#709,.T.);
#474=EDGE_CURVE('',#617,#610,#710,.T.);
#475=EDGE_CURVE('',#525,#617,#711,.T.);
#476=EDGE_CURVE('',#524,#616,#712,.T.);
#477=EDGE_CURVE('',#618,#526,#713,.T.);
#478=EDGE_CURVE('',#619,#618,#714,.T.);
#479=EDGE_CURVE('',#619,#527,#715,.T.);
#480=EDGE_CURVE('',#569,#618,#716,.T.);
#481=EDGE_CURVE('',#568,#619,#717,.T.);
#482=EDGE_CURVE('',#609,#532,#718,.T.);
#483=EDGE_CURVE('',#605,#535,#719,.T.);
#484=EDGE_CURVE('',#583,#595,#720,.T.);
#485=EDGE_CURVE('',#594,#582,#721,.F.);
#486=EDGE_CURVE('',#584,#592,#722,.T.);
#487=EDGE_CURVE('',#593,#585,#723,.F.);
#488=EDGE_CURVE('',#598,#587,#724,.F.);
#489=EDGE_CURVE('',#586,#599,#725,.T.);
#490=EDGE_CURVE('',#596,#589,#726,.F.);
#491=EDGE_CURVE('',#588,#597,#727,.T.);
#492=EDGE_CURVE('',#574,#560,#728,.F.);
#493=EDGE_CURVE('',#561,#575,#729,.T.);
#494=EDGE_CURVE('',#562,#572,#730,.T.);
#495=EDGE_CURVE('',#573,#563,#731,.F.);
#496=EDGE_CURVE('',#578,#565,#732,.F.);
#497=EDGE_CURVE('',#564,#579,#733,.T.);
#498=EDGE_CURVE('',#576,#567,#734,.F.);
#499=EDGE_CURVE('',#566,#577,#735,.T.);
#500=EDGE_CURVE('',#537,#551,#736,.T.);
#501=EDGE_CURVE('',#550,#536,#737,.F.);
#502=EDGE_CURVE('',#549,#539,#738,.F.);
#503=EDGE_CURVE('',#538,#548,#739,.T.);
#504=EDGE_CURVE('',#540,#555,#740,.T.);
#505=EDGE_CURVE('',#554,#541,#741,.F.);
#506=EDGE_CURVE('',#542,#553,#742,.T.);
#507=EDGE_CURVE('',#552,#543,#743,.F.);
#508=EDGE_CURVE('',#606,#615,#744,.T.);
#509=EDGE_CURVE('',#607,#614,#745,.T.);
#510=EDGE_CURVE('',#604,#613,#746,.T.);
#511=EDGE_CURVE('',#608,#612,#747,.T.);
#512=EDGE_CURVE('',#521,#530,#748,.T.);
#513=EDGE_CURVE('',#520,#528,#749,.T.);
#514=EDGE_CURVE('',#522,#529,#750,.T.);
#515=EDGE_CURVE('',#523,#531,#751,.T.);
#516=VERTEX_POINT('',#1497);
#517=VERTEX_POINT('',#1498);
#518=VERTEX_POINT('',#1500);
#519=VERTEX_POINT('',#1502);
#520=VERTEX_POINT('',#1505);
#521=VERTEX_POINT('',#1506);
#522=VERTEX_POINT('',#1508);
#523=VERTEX_POINT('',#1510);
#524=VERTEX_POINT('',#1514);
#525=VERTEX_POINT('',#1515);
#526=VERTEX_POINT('',#1517);
#527=VERTEX_POINT('',#1519);
#528=VERTEX_POINT('',#1522);
#529=VERTEX_POINT('',#1523);
#530=VERTEX_POINT('',#1525);
#531=VERTEX_POINT('',#1527);
#532=VERTEX_POINT('',#1531);
#533=VERTEX_POINT('',#1532);
#534=VERTEX_POINT('',#1534);
#535=VERTEX_POINT('',#1536);
#536=VERTEX_POINT('',#1539);
#537=VERTEX_POINT('',#1540);
#538=VERTEX_POINT('',#1542);
#539=VERTEX_POINT('',#1544);
#540=VERTEX_POINT('',#1546);
#541=VERTEX_POINT('',#1548);
#542=VERTEX_POINT('',#1550);
#543=VERTEX_POINT('',#1552);
#544=VERTEX_POINT('',#1556);
#545=VERTEX_POINT('',#1557);
#546=VERTEX_POINT('',#1559);
#547=VERTEX_POINT('',#1561);
#548=VERTEX_POINT('',#1564);
#549=VERTEX_POINT('',#1565);
#550=VERTEX_POINT('',#1567);
#551=VERTEX_POINT('',#1569);
#552=VERTEX_POINT('',#1571);
#553=VERTEX_POINT('',#1573);
#554=VERTEX_POINT('',#1575);
#555=VERTEX_POINT('',#1577);
#556=VERTEX_POINT('',#1581);
#557=VERTEX_POINT('',#1582);
#558=VERTEX_POINT('',#1584);
#559=VERTEX_POINT('',#1586);
#560=VERTEX_POINT('',#1589);
#561=VERTEX_POINT('',#1590);
#562=VERTEX_POINT('',#1592);
#563=VERTEX_POINT('',#1594);
#564=VERTEX_POINT('',#1596);
#565=VERTEX_POINT('',#1598);
#566=VERTEX_POINT('',#1600);
#567=VERTEX_POINT('',#1602);
#568=VERTEX_POINT('',#1606);
#569=VERTEX_POINT('',#1607);
#570=VERTEX_POINT('',#1609);
#571=VERTEX_POINT('',#1611);
#572=VERTEX_POINT('',#1614);
#573=VERTEX_POINT('',#1615);
#574=VERTEX_POINT('',#1617);
#575=VERTEX_POINT('',#1619);
#576=VERTEX_POINT('',#1621);
#577=VERTEX_POINT('',#1623);
#578=VERTEX_POINT('',#1625);
#579=VERTEX_POINT('',#1627);
#580=VERTEX_POINT('',#1631);
#581=VERTEX_POINT('',#1633);
#582=VERTEX_POINT('',#1636);
#583=VERTEX_POINT('',#1637);
#584=VERTEX_POINT('',#1639);
#585=VERTEX_POINT('',#1641);
#586=VERTEX_POINT('',#1643);
#587=VERTEX_POINT('',#1645);
#588=VERTEX_POINT('',#1647);
#589=VERTEX_POINT('',#1649);
#590=VERTEX_POINT('',#1653);
#591=VERTEX_POINT('',#1655);
#592=VERTEX_POINT('',#1658);
#593=VERTEX_POINT('',#1659);
#594=VERTEX_POINT('',#1661);
#595=VERTEX_POINT('',#1663);
#596=VERTEX_POINT('',#1665);
#597=VERTEX_POINT('',#1667);
#598=VERTEX_POINT('',#1669);
#599=VERTEX_POINT('',#1671);
#600=VERTEX_POINT('',#1678);
#601=VERTEX_POINT('',#1680);
#602=VERTEX_POINT('',#1687);
#603=VERTEX_POINT('',#1689);
#604=VERTEX_POINT('',#1693);
#605=VERTEX_POINT('',#1694);
#606=VERTEX_POINT('',#1696);
#607=VERTEX_POINT('',#1698);
#608=VERTEX_POINT('',#1700);
#609=VERTEX_POINT('',#1703);
#610=VERTEX_POINT('',#1710);
#611=VERTEX_POINT('',#1712);
#612=VERTEX_POINT('',#1716);
#613=VERTEX_POINT('',#1717);
#614=VERTEX_POINT('',#1719);
#615=VERTEX_POINT('',#1721);
#616=VERTEX_POINT('',#1724);
#617=VERTEX_POINT('',#1725);
#618=VERTEX_POINT('',#1733);
#619=VERTEX_POINT('',#1735);
#620=LINE('',#1496,#752);
#621=LINE('',#1499,#753);
#622=LINE('',#1501,#754);
#623=LINE('',#1503,#755);
#624=LINE('',#1504,#756);
#625=LINE('',#1507,#757);
#626=LINE('',#1509,#758);
#627=LINE('',#1511,#759);
#628=LINE('',#1513,#760);
#629=LINE('',#1516,#761);
#630=LINE('',#1518,#762);
#631=LINE('',#1520,#763);
#632=LINE('',#1521,#764);
#633=LINE('',#1524,#765);
#634=LINE('',#1526,#766);
#635=LINE('',#1528,#767);
#636=LINE('',#1530,#768);
#637=LINE('',#1533,#769);
#638=LINE('',#1535,#770);
#639=LINE('',#1537,#771);
#640=LINE('',#1538,#772);
#641=LINE('',#1543,#773);
#642=LINE('',#1547,#774);
#643=LINE('',#1551,#775);
#644=LINE('',#1555,#776);
#645=LINE('',#1558,#777);
#646=LINE('',#1560,#778);
#647=LINE('',#1562,#779);
#648=LINE('',#1563,#780);
#649=LINE('',#1568,#781);
#650=LINE('',#1572,#782);
#651=LINE('',#1576,#783);
#652=LINE('',#1580,#784);
#653=LINE('',#1583,#785);
#654=LINE('',#1585,#786);
#655=LINE('',#1587,#787);
#656=LINE('',#1588,#788);
#657=LINE('',#1593,#789);
#658=LINE('',#1597,#790);
#659=LINE('',#1601,#791);
#660=LINE('',#1605,#792);
#661=LINE('',#1608,#793);
#662=LINE('',#1610,#794);
#663=LINE('',#1612,#795);
#664=LINE('',#1613,#796);
#665=LINE('',#1618,#797);
#666=LINE('',#1622,#798);
#667=LINE('',#1626,#799);
#668=LINE('',#1630,#800);
#669=LINE('',#1632,#801);
#670=LINE('',#1634,#802);
#671=LINE('',#1635,#803);
#672=LINE('',#1640,#804);
#673=LINE('',#1644,#805);
#674=LINE('',#1648,#806);
#675=LINE('',#1652,#807);
#676=LINE('',#1654,#808);
#677=LINE('',#1656,#809);
#678=LINE('',#1657,#810);
#679=LINE('',#1662,#811);
#680=LINE('',#1666,#812);
#681=LINE('',#1670,#813);
#682=LINE('',#1674,#814);
#683=LINE('',#1675,#815);
#684=LINE('',#1677,#816);
#685=LINE('',#1679,#817);
#686=LINE('',#1681,#818);
#687=LINE('',#1683,#819);
#688=LINE('',#1684,#820);
#689=LINE('',#1686,#821);
#690=LINE('',#1688,#822);
#691=LINE('',#1690,#823);
#692=LINE('',#1692,#824);
#693=LINE('',#1695,#825);
#694=LINE('',#1697,#826);
#695=LINE('',#1699,#827);
#696=LINE('',#1701,#828);
#697=LINE('',#1702,#829);
#698=LINE('',#1704,#830);
#699=LINE('',#1706,#831);
#700=LINE('',#1707,#832);
#701=LINE('',#1709,#833);
#702=LINE('',#1711,#834);
#703=LINE('',#1713,#835);
#704=LINE('',#1715,#836);
#705=LINE('',#1718,#837);
#706=LINE('',#1720,#838);
#707=LINE('',#1722,#839);
#708=LINE('',#1723,#840);
#709=LINE('',#1726,#841);
#710=LINE('',#1727,#842);
#711=LINE('',#1729,#843);
#712=LINE('',#1730,#844);
#713=LINE('',#1732,#845);
#714=LINE('',#1734,#846);
#715=LINE('',#1736,#847);
#716=LINE('',#1738,#848);
#717=LINE('',#1739,#849);
#718=LINE('',#1741,#850);
#719=LINE('',#1742,#851);
#720=LINE('',#1744,#852);
#721=LINE('',#1745,#853);
#722=LINE('',#1747,#854);
#723=LINE('',#1748,#855);
#724=LINE('',#1750,#856);
#725=LINE('',#1751,#857);
#726=LINE('',#1753,#858);
#727=LINE('',#1754,#859);
#728=LINE('',#1760,#860);
#729=LINE('',#1761,#861);
#730=LINE('',#1763,#862);
#731=LINE('',#1764,#863);
#732=LINE('',#1766,#864);
#733=LINE('',#1767,#865);
#734=LINE('',#1769,#866);
#735=LINE('',#1770,#867);
#736=LINE('',#1772,#868);
#737=LINE('',#1773,#869);
#738=LINE('',#1775,#870);
#739=LINE('',#1776,#871);
#740=LINE('',#1778,#872);
#741=LINE('',#1779,#873);
#742=LINE('',#1781,#874);
#743=LINE('',#1782,#875);
#744=LINE('',#1784,#876);
#745=LINE('',#1785,#877);
#746=LINE('',#1787,#878);
#747=LINE('',#1789,#879);
#748=LINE('',#1791,#880);
#749=LINE('',#1792,#881);
#750=LINE('',#1794,#882);
#751=LINE('',#1796,#883);
#752=VECTOR('',#1206,1.);
#753=VECTOR('',#1207,1.);
#754=VECTOR('',#1208,1.);
#755=VECTOR('',#1209,1.);
#756=VECTOR('',#1210,1.);
#757=VECTOR('',#1211,1.);
#758=VECTOR('',#1212,1.);
#759=VECTOR('',#1213,1.);
#760=VECTOR('',#1216,1.);
#761=VECTOR('',#1217,1.);
#762=VECTOR('',#1218,1.);
#763=VECTOR('',#1219,1.);
#764=VECTOR('',#1220,1.);
#765=VECTOR('',#1221,1.);
#766=VECTOR('',#1222,1.);
#767=VECTOR('',#1223,1.);
#768=VECTOR('',#1226,1.);
#769=VECTOR('',#1227,1.);
#770=VECTOR('',#1228,1.);
#771=VECTOR('',#1229,1.);
#772=VECTOR('',#1230,1.);
#773=VECTOR('',#1233,1.);
#774=VECTOR('',#1236,1.);
#775=VECTOR('',#1239,1.);
#776=VECTOR('',#1244,1.);
#777=VECTOR('',#1245,1.);
#778=VECTOR('',#1246,1.);
#779=VECTOR('',#1247,1.);
#780=VECTOR('',#1248,1.);
#781=VECTOR('',#1251,1.);
#782=VECTOR('',#1254,1.);
#783=VECTOR('',#1257,1.);
#784=VECTOR('',#1262,1.);
#785=VECTOR('',#1263,1.);
#786=VECTOR('',#1264,1.);
#787=VECTOR('',#1265,1.);
#788=VECTOR('',#1266,1.);
#789=VECTOR('',#1269,1.);
#790=VECTOR('',#1272,1.);
#791=VECTOR('',#1275,1.);
#792=VECTOR('',#1280,1.);
#793=VECTOR('',#1281,1.);
#794=VECTOR('',#1282,1.);
#795=VECTOR('',#1283,1.);
#796=VECTOR('',#1284,1.);
#797=VECTOR('',#1287,1.);
#798=VECTOR('',#1290,1.);
#799=VECTOR('',#1293,1.);
#800=VECTOR('',#1298,1.);
#801=VECTOR('',#1299,1.);
#802=VECTOR('',#1300,1.);
#803=VECTOR('',#1301,1.);
#804=VECTOR('',#1304,1.);
#805=VECTOR('',#1307,1.);
#806=VECTOR('',#1310,1.);
#807=VECTOR('',#1315,1.);
#808=VECTOR('',#1316,1.);
#809=VECTOR('',#1317,1.);
#810=VECTOR('',#1318,1.);
#811=VECTOR('',#1321,1.);
#812=VECTOR('',#1324,1.);
#813=VECTOR('',#1327,1.);
#814=VECTOR('',#1332,1.);
#815=VECTOR('',#1333,1.);
#816=VECTOR('',#1336,1.);
#817=VECTOR('',#1337,1.);
#818=VECTOR('',#1338,1.);
#819=VECTOR('',#1341,1.);
#820=VECTOR('',#1342,1.);
#821=VECTOR('',#1345,1.);
#822=VECTOR('',#1346,1.);
#823=VECTOR('',#1347,1.);
#824=VECTOR('',#1350,1.);
#825=VECTOR('',#1351,1.);
#826=VECTOR('',#1352,1.);
#827=VECTOR('',#1353,1.);
#828=VECTOR('',#1354,1.);
#829=VECTOR('',#1355,1.);
#830=VECTOR('',#1356,1.);
#831=VECTOR('',#1359,1.);
#832=VECTOR('',#1360,1.);
#833=VECTOR('',#1363,1.);
#834=VECTOR('',#1364,1.);
#835=VECTOR('',#1365,1.);
#836=VECTOR('',#1368,1.);
#837=VECTOR('',#1369,1.);
#838=VECTOR('',#1370,1.);
#839=VECTOR('',#1371,1.);
#840=VECTOR('',#1372,1.);
#841=VECTOR('',#1373,1.);
#842=VECTOR('',#1374,1.);
#843=VECTOR('',#1377,1.);
#844=VECTOR('',#1378,1.);
#845=VECTOR('',#1381,1.);
#846=VECTOR('',#1382,1.);
#847=VECTOR('',#1383,1.);
#848=VECTOR('',#1386,1.);
#849=VECTOR('',#1387,1.);
#850=VECTOR('',#1390,1.);
#851=VECTOR('',#1391,1.);
#852=VECTOR('',#1394,1.);
#853=VECTOR('',#1395,1.);
#854=VECTOR('',#1398,1.);
#855=VECTOR('',#1399,1.);
#856=VECTOR('',#1402,1.);
#857=VECTOR('',#1403,1.);
#858=VECTOR('',#1406,1.);
#859=VECTOR('',#1407,1.);
#860=VECTOR('',#1418,1.);
#861=VECTOR('',#1419,1.);
#862=VECTOR('',#1422,1.);
#863=VECTOR('',#1423,1.);
#864=VECTOR('',#1426,1.);
#865=VECTOR('',#1427,1.);
#866=VECTOR('',#1430,1.);
#867=VECTOR('',#1431,1.);
#868=VECTOR('',#1434,1.);
#869=VECTOR('',#1435,1.);
#870=VECTOR('',#1438,1.);
#871=VECTOR('',#1439,1.);
#872=VECTOR('',#1442,1.);
#873=VECTOR('',#1443,1.);
#874=VECTOR('',#1446,1.);
#875=VECTOR('',#1447,1.);
#876=VECTOR('',#1450,1.);
#877=VECTOR('',#1451,1.);
#878=VECTOR('',#1454,1.);
#879=VECTOR('',#1457,1.);
#880=VECTOR('',#1460,1.);
#881=VECTOR('',#1461,1.);
#882=VECTOR('',#1464,1.);
#883=VECTOR('',#1467,1.);
#884=EDGE_LOOP('',(#48,#49,#50,#51));
#885=EDGE_LOOP('',(#52,#53,#54,#55));
#886=EDGE_LOOP('',(#56,#57,#58,#59));
#887=EDGE_LOOP('',(#60,#61,#62,#63));
#888=EDGE_LOOP('',(#64,#65,#66,#67));
#889=EDGE_LOOP('',(#68,#69,#70,#71,#72,#73,#74,#75));
#890=EDGE_LOOP('',(#76,#77,#78,#79));
#891=EDGE_LOOP('',(#80,#81,#82,#83,#84,#85,#86,#87));
#892=EDGE_LOOP('',(#88,#89,#90,#91));
#893=EDGE_LOOP('',(#92,#93,#94,#95,#96,#97,#98,#99));
#894=EDGE_LOOP('',(#100,#101,#102,#103));
#895=EDGE_LOOP('',(#104,#105,#106,#107,#108,#109,#110,#111));
#896=EDGE_LOOP('',(#112,#113,#114,#115));
#897=EDGE_LOOP('',(#116,#117,#118,#119,#120,#121,#122,#123));
#898=EDGE_LOOP('',(#124,#125,#126,#127));
#899=EDGE_LOOP('',(#128,#129,#130,#131,#132,#133,#134,#135));
#900=EDGE_LOOP('',(#136,#137,#138,#139));
#901=EDGE_LOOP('',(#140,#141,#142,#143));
#902=EDGE_LOOP('',(#144,#145,#146,#147));
#903=EDGE_LOOP('',(#148,#149,#150,#151));
#904=EDGE_LOOP('',(#152,#153,#154,#155,#156,#157,#158,#159));
#905=EDGE_LOOP('',(#160,#161,#162,#163));
#906=EDGE_LOOP('',(#164,#165,#166,#167));
#907=EDGE_LOOP('',(#168,#169,#170,#171));
#908=EDGE_LOOP('',(#172,#173,#174,#175));
#909=EDGE_LOOP('',(#176,#177,#178,#179));
#910=EDGE_LOOP('',(#180,#181,#182,#183));
#911=EDGE_LOOP('',(#184,#185,#186,#187));
#912=EDGE_LOOP('',(#188,#189,#190,#191));
#913=EDGE_LOOP('',(#192,#193,#194,#195));
#914=EDGE_LOOP('',(#196,#197,#198,#199));
#915=EDGE_LOOP('',(#200,#201,#202,#203));
#916=EDGE_LOOP('',(#204,#205,#206,#207));
#917=EDGE_LOOP('',(#208,#209,#210,#211));
#918=EDGE_LOOP('',(#212,#213,#214,#215));
#919=EDGE_LOOP('',(#216,#217,#218,#219));
#920=EDGE_LOOP('',(#220,#221,#222,#223));
#921=EDGE_LOOP('',(#224,#225,#226,#227));
#922=EDGE_LOOP('',(#228,#229,#230,#231));
#923=EDGE_LOOP('',(#232,#233,#234,#235));
#924=EDGE_LOOP('',(#236,#237,#238,#239));
#925=EDGE_LOOP('',(#240,#241,#242,#243));
#926=EDGE_LOOP('',(#244,#245,#246,#247));
#927=EDGE_LOOP('',(#248,#249,#250,#251));
#928=EDGE_LOOP('',(#252,#253,#254,#255));
#929=EDGE_LOOP('',(#256,#257,#258,#259));
#930=EDGE_LOOP('',(#260,#261,#262,#263));
#931=EDGE_LOOP('',(#264,#265,#266,#267));
#932=EDGE_LOOP('',(#268,#269,#270,#271));
#933=EDGE_LOOP('',(#272,#273,#274,#275));
#934=EDGE_LOOP('',(#276,#277,#278,#279));
#935=EDGE_LOOP('',(#280,#281,#282,#283));
#936=EDGE_LOOP('',(#284,#285,#286,#287));
#937=EDGE_LOOP('',(#288,#289,#290,#291));
#938=EDGE_LOOP('',(#292,#293,#294,#295));
#939=EDGE_LOOP('',(#296,#297,#298,#299));
#940=EDGE_LOOP('',(#300,#301,#302,#303));
#941=EDGE_LOOP('',(#304,#305,#306,#307));
#942=EDGE_LOOP('',(#308,#309,#310,#311));
#943=EDGE_LOOP('',(#312,#313,#314,#315));
#944=EDGE_LOOP('',(#316,#317,#318,#319,#320,#321,#322,#323,#324,#325));
#945=EDGE_LOOP('',(#326,#327,#328,#329,#330,#331,#332,#333,#334,#335));
#946=EDGE_LOOP('',(#336,#337,#338,#339,#340,#341,#342,#343,#344,#345,#346,
#347,#348,#349));
#947=EDGE_LOOP('',(#350,#351,#352,#353,#354,#355,#356,#357,#358,#359));
#948=FACE_BOUND('',#884,.T.);
#949=FACE_BOUND('',#885,.T.);
#950=FACE_BOUND('',#886,.T.);
#951=FACE_BOUND('',#887,.T.);
#952=FACE_BOUND('',#888,.T.);
#953=FACE_BOUND('',#889,.T.);
#954=FACE_BOUND('',#890,.T.);
#955=FACE_BOUND('',#891,.T.);
#956=FACE_BOUND('',#892,.T.);
#957=FACE_BOUND('',#893,.T.);
#958=FACE_BOUND('',#894,.T.);
#959=FACE_BOUND('',#895,.T.);
#960=FACE_BOUND('',#896,.T.);
#961=FACE_BOUND('',#897,.T.);
#962=FACE_BOUND('',#898,.T.);
#963=FACE_BOUND('',#899,.T.);
#964=FACE_BOUND('',#900,.T.);
#965=FACE_BOUND('',#901,.T.);
#966=FACE_BOUND('',#902,.T.);
#967=FACE_BOUND('',#903,.T.);
#968=FACE_BOUND('',#904,.T.);
#969=FACE_BOUND('',#905,.T.);
#970=FACE_BOUND('',#906,.T.);
#971=FACE_BOUND('',#907,.T.);
#972=FACE_BOUND('',#908,.T.);
#973=FACE_BOUND('',#909,.T.);
#974=FACE_BOUND('',#910,.T.);
#975=FACE_BOUND('',#911,.T.);
#976=FACE_BOUND('',#912,.T.);
#977=FACE_BOUND('',#913,.T.);
#978=FACE_BOUND('',#914,.T.);
#979=FACE_BOUND('',#915,.T.);
#980=FACE_BOUND('',#916,.T.);
#981=FACE_BOUND('',#917,.T.);
#982=FACE_BOUND('',#918,.T.);
#983=FACE_BOUND('',#919,.T.);
#984=FACE_BOUND('',#920,.T.);
#985=FACE_BOUND('',#921,.T.);
#986=FACE_BOUND('',#922,.T.);
#987=FACE_BOUND('',#923,.T.);
#988=FACE_BOUND('',#924,.T.);
#989=FACE_BOUND('',#925,.T.);
#990=FACE_BOUND('',#926,.T.);
#991=FACE_BOUND('',#927,.T.);
#992=FACE_BOUND('',#928,.T.);
#993=FACE_BOUND('',#929,.T.);
#994=FACE_BOUND('',#930,.T.);
#995=FACE_BOUND('',#931,.T.);
#996=FACE_BOUND('',#932,.T.);
#997=FACE_BOUND('',#933,.T.);
#998=FACE_BOUND('',#934,.T.);
#999=FACE_BOUND('',#935,.T.);
#1000=FACE_BOUND('',#936,.T.);
#1001=FACE_BOUND('',#937,.T.);
#1002=FACE_BOUND('',#938,.T.);
#1003=FACE_BOUND('',#939,.T.);
#1004=FACE_BOUND('',#940,.T.);
#1005=FACE_BOUND('',#941,.T.);
#1006=FACE_BOUND('',#942,.T.);
#1007=FACE_BOUND('',#943,.T.);
#1008=FACE_BOUND('',#944,.T.);
#1009=FACE_BOUND('',#945,.T.);
#1010=FACE_BOUND('',#946,.T.);
#1011=FACE_BOUND('',#947,.T.);
#1012=PLANE('',#1123);
#1013=PLANE('',#1124);
#1014=PLANE('',#1125);
#1015=PLANE('',#1130);
#1016=PLANE('',#1135);
#1017=PLANE('',#1140);
#1018=PLANE('',#1145);
#1019=PLANE('',#1150);
#1020=PLANE('',#1155);
#1021=PLANE('',#1156);
#1022=PLANE('',#1157);
#1023=PLANE('',#1158);
#1024=PLANE('',#1159);
#1025=PLANE('',#1160);
#1026=PLANE('',#1161);
#1027=PLANE('',#1162);
#1028=PLANE('',#1163);
#1029=PLANE('',#1164);
#1030=PLANE('',#1165);
#1031=PLANE('',#1166);
#1032=PLANE('',#1167);
#1033=PLANE('',#1168);
#1034=PLANE('',#1169);
#1035=PLANE('',#1170);
#1036=PLANE('',#1175);
#1037=PLANE('',#1176);
#1038=PLANE('',#1177);
#1039=PLANE('',#1178);
#1040=PLANE('',#1179);
#1041=PLANE('',#1180);
#1042=PLANE('',#1181);
#1043=PLANE('',#1182);
#1044=PLANE('',#1183);
#1045=PLANE('',#1184);
#1046=PLANE('',#1185);
#1047=PLANE('',#1186);
#1048=PLANE('',#1187);
#1049=PLANE('',#1188);
#1050=PLANE('',#1189);
#1051=PLANE('',#1198);
#1052=PLANE('',#1199);
#1053=PLANE('',#1200);
#1054=PLANE('',#1201);
#1055=ADVANCED_FACE('',(#948,#949),#1012,.F.);
#1056=ADVANCED_FACE('',(#950,#951),#1013,.T.);
#1057=ADVANCED_FACE('',(#952,#953),#1014,.F.);
#1058=ADVANCED_FACE('',(#954,#955),#1015,.T.);
#1059=ADVANCED_FACE('',(#956,#957),#1016,.F.);
#1060=ADVANCED_FACE('',(#958,#959),#1017,.T.);
#1061=ADVANCED_FACE('',(#960,#961),#1018,.F.);
#1062=ADVANCED_FACE('',(#962,#963),#1019,.T.);
#1063=ADVANCED_FACE('',(#964),#1020,.F.);
#1064=ADVANCED_FACE('',(#965),#1021,.F.);
#1065=ADVANCED_FACE('',(#966),#1022,.F.);
#1066=ADVANCED_FACE('',(#967),#1023,.F.);
#1067=ADVANCED_FACE('',(#968),#1024,.F.);
#1068=ADVANCED_FACE('',(#969),#1025,.T.);
#1069=ADVANCED_FACE('',(#970),#1026,.T.);
#1070=ADVANCED_FACE('',(#971,#972),#1027,.T.);
#1071=ADVANCED_FACE('',(#973),#1028,.T.);
#1072=ADVANCED_FACE('',(#974),#1029,.T.);
#1073=ADVANCED_FACE('',(#975),#1030,.T.);
#1074=ADVANCED_FACE('',(#976),#1031,.F.);
#1075=ADVANCED_FACE('',(#977),#1032,.T.);
#1076=ADVANCED_FACE('',(#978),#1033,.F.);
#1077=ADVANCED_FACE('',(#979),#1034,.F.);
#1078=ADVANCED_FACE('',(#980),#1035,.T.);
#1079=ADVANCED_FACE('',(#981),#12,.F.);
#1080=ADVANCED_FACE('',(#982),#13,.F.);
#1081=ADVANCED_FACE('',(#983),#14,.F.);
#1082=ADVANCED_FACE('',(#984),#15,.F.);
#1083=ADVANCED_FACE('',(#985),#1036,.T.);
#1084=ADVANCED_FACE('',(#986),#1037,.F.);
#1085=ADVANCED_FACE('',(#987),#1038,.F.);
#1086=ADVANCED_FACE('',(#988),#1039,.T.);
#1087=ADVANCED_FACE('',(#989),#1040,.T.);
#1088=ADVANCED_FACE('',(#990),#1041,.F.);
#1089=ADVANCED_FACE('',(#991),#1042,.F.);
#1090=ADVANCED_FACE('',(#992),#1043,.T.);
#1091=ADVANCED_FACE('',(#993),#1044,.F.);
#1092=ADVANCED_FACE('',(#994),#1045,.F.);
#1093=ADVANCED_FACE('',(#995),#1046,.T.);
#1094=ADVANCED_FACE('',(#996),#1047,.T.);
#1095=ADVANCED_FACE('',(#997),#1048,.F.);
#1096=ADVANCED_FACE('',(#998),#1049,.F.);
#1097=ADVANCED_FACE('',(#999),#1050,.T.);
#1098=ADVANCED_FACE('',(#1000),#16,.F.);
#1099=ADVANCED_FACE('',(#1001),#17,.F.);
#1100=ADVANCED_FACE('',(#1002),#18,.F.);
#1101=ADVANCED_FACE('',(#1003),#19,.F.);
#1102=ADVANCED_FACE('',(#1004),#20,.F.);
#1103=ADVANCED_FACE('',(#1005),#21,.F.);
#1104=ADVANCED_FACE('',(#1006),#22,.F.);
#1105=ADVANCED_FACE('',(#1007),#23,.F.);
#1106=ADVANCED_FACE('',(#1008),#1051,.F.);
#1107=ADVANCED_FACE('',(#1009),#1052,.T.);
#1108=ADVANCED_FACE('',(#1010),#1053,.F.);
#1109=ADVANCED_FACE('',(#1011),#1054,.T.);
#1110=CLOSED_SHELL('',(#1055,#1056,#1057,#1058,#1059,#1060,#1061,#1062,
#1063,#1064,#1065,#1066,#1067,#1068,#1069,#1070,#1071,#1072,#1073,#1074,
#1075,#1076,#1077,#1078,#1079,#1080,#1081,#1082,#1083,#1084,#1085,#1086,
#1087,#1088,#1089,#1090,#1091,#1092,#1093,#1094,#1095,#1096,#1097,#1098,
#1099,#1100,#1101,#1102,#1103,#1104,#1105,#1106,#1107,#1108,#1109));
#1111=STYLED_ITEM('',(#1112),#1119);
#1112=PRESENTATION_STYLE_ASSIGNMENT((#1113));
#1113=SURFACE_STYLE_USAGE(.BOTH.,#1114);
#1114=SURFACE_SIDE_STYLE('',(#1115));
#1115=SURFACE_STYLE_FILL_AREA(#1116);
#1116=FILL_AREA_STYLE('',(#1117));
#1117=FILL_AREA_STYLE_COLOUR('',#1118);
#1118=COLOUR_RGB('',0.498039215686275,0.498039215686275,0.498039215686275);
#1119=MANIFOLD_SOLID_BREP('Part 1',#1110);
#1120=SHAPE_DEFINITION_REPRESENTATION(#1816,#1121);
#1121=SHAPE_REPRESENTATION('Part 1',(#1122),#1811);
#1122=AXIS2_PLACEMENT_3D('',#1494,#1202,#1203);
#1123=AXIS2_PLACEMENT_3D('',#1495,#1204,#1205);
#1124=AXIS2_PLACEMENT_3D('',#1512,#1214,#1215);
#1125=AXIS2_PLACEMENT_3D('',#1529,#1224,#1225);
#1126=AXIS2_PLACEMENT_3D('',#1541,#1231,#1232);
#1127=AXIS2_PLACEMENT_3D('',#1545,#1234,#1235);
#1128=AXIS2_PLACEMENT_3D('',#1549,#1237,#1238);
#1129=AXIS2_PLACEMENT_3D('',#1553,#1240,#1241);
#1130=AXIS2_PLACEMENT_3D('',#1554,#1242,#1243);
#1131=AXIS2_PLACEMENT_3D('',#1566,#1249,#1250);
#1132=AXIS2_PLACEMENT_3D('',#1570,#1252,#1253);
#1133=AXIS2_PLACEMENT_3D('',#1574,#1255,#1256);
#1134=AXIS2_PLACEMENT_3D('',#1578,#1258,#1259);
#1135=AXIS2_PLACEMENT_3D('',#1579,#1260,#1261);
#1136=AXIS2_PLACEMENT_3D('',#1591,#1267,#1268);
#1137=AXIS2_PLACEMENT_3D('',#1595,#1270,#1271);
#1138=AXIS2_PLACEMENT_3D('',#1599,#1273,#1274);
#1139=AXIS2_PLACEMENT_3D('',#1603,#1276,#1277);
#1140=AXIS2_PLACEMENT_3D('',#1604,#1278,#1279);
#1141=AXIS2_PLACEMENT_3D('',#1616,#1285,#1286);
#1142=AXIS2_PLACEMENT_3D('',#1620,#1288,#1289);
#1143=AXIS2_PLACEMENT_3D('',#1624,#1291,#1292);
#1144=AXIS2_PLACEMENT_3D('',#1628,#1294,#1295);
#1145=AXIS2_PLACEMENT_3D('',#1629,#1296,#1297);
#1146=AXIS2_PLACEMENT_3D('',#1638,#1302,#1303);
#1147=AXIS2_PLACEMENT_3D('',#1642,#1305,#1306);
#1148=AXIS2_PLACEMENT_3D('',#1646,#1308,#1309);
#1149=AXIS2_PLACEMENT_3D('',#1650,#1311,#1312);
#1150=AXIS2_PLACEMENT_3D('',#1651,#1313,#1314);
#1151=AXIS2_PLACEMENT_3D('',#1660,#1319,#1320);
#1152=AXIS2_PLACEMENT_3D('',#1664,#1322,#1323);
#1153=AXIS2_PLACEMENT_3D('',#1668,#1325,#1326);
#1154=AXIS2_PLACEMENT_3D('',#1672,#1328,#1329);
#1155=AXIS2_PLACEMENT_3D('',#1673,#1330,#1331);
#1156=AXIS2_PLACEMENT_3D('',#1676,#1334,#1335);
#1157=AXIS2_PLACEMENT_3D('',#1682,#1339,#1340);
#1158=AXIS2_PLACEMENT_3D('',#1685,#1343,#1344);
#1159=AXIS2_PLACEMENT_3D('',#1691,#1348,#1349);
#1160=AXIS2_PLACEMENT_3D('',#1705,#1357,#1358);
#1161=AXIS2_PLACEMENT_3D('',#1708,#1361,#1362);
#1162=AXIS2_PLACEMENT_3D('',#1714,#1366,#1367);
#1163=AXIS2_PLACEMENT_3D('',#1728,#1375,#1376);
#1164=AXIS2_PLACEMENT_3D('',#1731,#1379,#1380);
#1165=AXIS2_PLACEMENT_3D('',#1737,#1384,#1385);
#1166=AXIS2_PLACEMENT_3D('',#1740,#1388,#1389);
#1167=AXIS2_PLACEMENT_3D('',#1743,#1392,#1393);
#1168=AXIS2_PLACEMENT_3D('',#1746,#1396,#1397);
#1169=AXIS2_PLACEMENT_3D('',#1749,#1400,#1401);
#1170=AXIS2_PLACEMENT_3D('',#1752,#1404,#1405);
#1171=AXIS2_PLACEMENT_3D('',#1755,#1408,#1409);
#1172=AXIS2_PLACEMENT_3D('',#1756,#1410,#1411);
#1173=AXIS2_PLACEMENT_3D('',#1757,#1412,#1413);
#1174=AXIS2_PLACEMENT_3D('',#1758,#1414,#1415);
#1175=AXIS2_PLACEMENT_3D('',#1759,#1416,#1417);
#1176=AXIS2_PLACEMENT_3D('',#1762,#1420,#1421);
#1177=AXIS2_PLACEMENT_3D('',#1765,#1424,#1425);
#1178=AXIS2_PLACEMENT_3D('',#1768,#1428,#1429);
#1179=AXIS2_PLACEMENT_3D('',#1771,#1432,#1433);
#1180=AXIS2_PLACEMENT_3D('',#1774,#1436,#1437);
#1181=AXIS2_PLACEMENT_3D('',#1777,#1440,#1441);
#1182=AXIS2_PLACEMENT_3D('',#1780,#1444,#1445);
#1183=AXIS2_PLACEMENT_3D('',#1783,#1448,#1449);
#1184=AXIS2_PLACEMENT_3D('',#1786,#1452,#1453);
#1185=AXIS2_PLACEMENT_3D('',#1788,#1455,#1456);
#1186=AXIS2_PLACEMENT_3D('',#1790,#1458,#1459);
#1187=AXIS2_PLACEMENT_3D('',#1793,#1462,#1463);
#1188=AXIS2_PLACEMENT_3D('',#1795,#1465,#1466);
#1189=AXIS2_PLACEMENT_3D('',#1797,#1468,#1469);
#1190=AXIS2_PLACEMENT_3D('',#1798,#1470,#1471);
#1191=AXIS2_PLACEMENT_3D('',#1799,#1472,#1473);
#1192=AXIS2_PLACEMENT_3D('',#1800,#1474,#1475);
#1193=AXIS2_PLACEMENT_3D('',#1801,#1476,#1477);
#1194=AXIS2_PLACEMENT_3D('',#1802,#1478,#1479);
#1195=AXIS2_PLACEMENT_3D('',#1803,#1480,#1481);
#1196=AXIS2_PLACEMENT_3D('',#1804,#1482,#1483);
#1197=AXIS2_PLACEMENT_3D('',#1805,#1484,#1485);
#1198=AXIS2_PLACEMENT_3D('',#1806,#1486,#1487);
#1199=AXIS2_PLACEMENT_3D('',#1807,#1488,#1489);
#1200=AXIS2_PLACEMENT_3D('',#1808,#1490,#1491);
#1201=AXIS2_PLACEMENT_3D('',#1809,#1492,#1493);
#1202=DIRECTION('',(0.,0.,1.));
#1203=DIRECTION('',(1.,0.,0.));
#1204=DIRECTION('',(0.,1.,0.));
#1205=DIRECTION('',(0.,0.,1.));
#1206=DIRECTION('',(1.,0.,0.));
#1207=DIRECTION('',(0.,0.,-1.));
#1208=DIRECTION('',(1.,0.,0.));
#1209=DIRECTION('',(0.,0.,-1.));
#1210=DIRECTION('',(-1.,0.,0.));
#1211=DIRECTION('',(0.,0.,-1.));
#1212=DIRECTION('',(-1.,0.,0.));
#1213=DIRECTION('',(0.,0.,-1.));
#1214=DIRECTION('',(0.,1.,0.));
#1215=DIRECTION('',(0.,0.,1.));
#1216=DIRECTION('',(0.,0.,-1.));
#1217=DIRECTION('',(1.,0.,0.));
#1218=DIRECTION('',(0.,0.,-1.));
#1219=DIRECTION('',(1.,0.,0.));
#1220=DIRECTION('',(0.,0.,-1.));
#1221=DIRECTION('',(-1.,0.,0.));
#1222=DIRECTION('',(0.,0.,-1.));
#1223=DIRECTION('',(-1.,0.,0.));
#1224=DIRECTION('',(0.,-1.,0.));
#1225=DIRECTION('',(0.,0.,-1.));
#1226=DIRECTION('',(-1.,0.,0.));
#1227=DIRECTION('',(0.,0.,-1.));
#1228=DIRECTION('',(-1.,0.,0.));
#1229=DIRECTION('',(0.,0.,-1.));
#1230=DIRECTION('',(1.,0.,0.));
#1231=DIRECTION('',(0.,-1.,0.));
#1232=DIRECTION('',(0.,0.,-1.));
#1233=DIRECTION('',(0.,0.,-1.));
#1234=DIRECTION('',(0.,-1.,0.));
#1235=DIRECTION('',(0.,0.,-1.));
#1236=DIRECTION('',(1.,0.,0.));
#1237=DIRECTION('',(0.,-1.,0.));
#1238=DIRECTION('',(0.,0.,-1.));
#1239=DIRECTION('',(0.,0.,-1.));
#1240=DIRECTION('',(0.,-1.,0.));
#1241=DIRECTION('',(0.,0.,-1.));
#1242=DIRECTION('',(0.,-1.,0.));
#1243=DIRECTION('',(0.,0.,-1.));
#1244=DIRECTION('',(0.,0.,-1.));
#1245=DIRECTION('',(-1.,0.,0.));
#1246=DIRECTION('',(0.,0.,-1.));
#1247=DIRECTION('',(-1.,0.,0.));
#1248=DIRECTION('',(0.,0.,-1.));
#1249=DIRECTION('',(0.,-1.,0.));
#1250=DIRECTION('',(0.,0.,-1.));
#1251=DIRECTION('',(1.,0.,0.));
#1252=DIRECTION('',(0.,-1.,0.));
#1253=DIRECTION('',(0.,0.,-1.));
#1254=DIRECTION('',(0.,0.,-1.));
#1255=DIRECTION('',(0.,-1.,0.));
#1256=DIRECTION('',(0.,0.,-1.));
#1257=DIRECTION('',(1.,0.,0.));
#1258=DIRECTION('',(0.,-1.,0.));
#1259=DIRECTION('',(0.,0.,-1.));
#1260=DIRECTION('',(-0.707106781186634,0.707106781186461,0.));
#1261=DIRECTION('',(-0.707106781186461,-0.707106781186634,0.));
#1262=DIRECTION('',(0.707106781186461,0.707106781186634,0.));
#1263=DIRECTION('',(0.,0.,-1.));
#1264=DIRECTION('',(0.707106781186461,0.707106781186634,0.));
#1265=DIRECTION('',(0.,0.,-1.));
#1266=DIRECTION('',(-0.707106781186461,-0.707106781186634,0.));
#1267=DIRECTION('',(-0.707106781186634,0.707106781186461,0.));
#1268=DIRECTION('',(0.707106781186461,0.707106781186634,0.));
#1269=DIRECTION('',(0.,0.,-1.));
#1270=DIRECTION('',(-0.707106781186634,0.707106781186461,0.));
#1271=DIRECTION('',(-0.707106781186461,-0.707106781186634,0.));
#1272=DIRECTION('',(-0.707106781186461,-0.707106781186634,0.));
#1273=DIRECTION('',(-0.707106781186634,0.707106781186461,0.));
#1274=DIRECTION('',(0.707106781186461,0.707106781186634,0.));
#1275=DIRECTION('',(0.,0.,-1.));
#1276=DIRECTION('',(-0.707106781186634,0.707106781186461,0.));
#1277=DIRECTION('',(-0.707106781186461,-0.707106781186634,0.));
#1278=DIRECTION('',(-0.692704446147286,0.721221568096644,0.));
#1279=DIRECTION('',(-0.721221568096644,-0.692704446147286,0.));
#1280=DIRECTION('',(0.,0.,-1.));
#1281=DIRECTION('',(0.721221568096644,0.692704446147286,0.));
#1282=DIRECTION('',(0.,0.,-1.));
#1283=DIRECTION('',(0.721221568096644,0.692704446147286,0.));
#1284=DIRECTION('',(0.,0.,-1.));
#1285=DIRECTION('',(-0.692704446147286,0.721221568096644,0.));
#1286=DIRECTION('',(-0.721221568096644,-0.692704446147286,0.));
#1287=DIRECTION('',(-0.721221568096644,-0.692704446147286,0.));
#1288=DIRECTION('',(-0.692704446147286,0.721221568096644,0.));
#1289=DIRECTION('',(-0.721221568096644,-0.692704446147286,0.));
#1290=DIRECTION('',(0.,0.,-1.));
#1291=DIRECTION('',(-0.692704446147286,0.721221568096644,0.));
#1292=DIRECTION('',(-0.721221568096644,-0.692704446147286,0.));
#1293=DIRECTION('',(-0.721221568096644,-0.692704446147286,0.));
#1294=DIRECTION('',(-0.692704446147286,0.721221568096644,0.));
#1295=DIRECTION('',(-0.721221568096644,-0.692704446147286,0.));
#1296=DIRECTION('',(-1.,0.,0.));
#1297=DIRECTION('',(0.,0.,1.));
#1298=DIRECTION('',(0.,1.,0.));
#1299=DIRECTION('',(0.,1.,0.));
#1300=DIRECTION('',(0.,0.,-1.));
#1301=DIRECTION('',(0.,-1.,0.));
#1302=DIRECTION('',(-1.,0.,0.));
#1303=DIRECTION('',(0.,0.,1.));
#1304=DIRECTION('',(0.,0.,-1.));
#1305=DIRECTION('',(-1.,0.,0.));
#1306=DIRECTION('',(0.,0.,1.));
#1307=DIRECTION('',(0.,-1.,0.));
#1308=DIRECTION('',(-1.,0.,0.));
#1309=DIRECTION('',(0.,0.,1.));
#1310=DIRECTION('',(0.,0.,-1.));
#1311=DIRECTION('',(-1.,0.,0.));
#1312=DIRECTION('',(0.,0.,1.));
#1313=DIRECTION('',(-1.,0.,0.));
#1314=DIRECTION('',(0.,0.,1.));
#1315=DIRECTION('',(0.,1.,0.));
#1316=DIRECTION('',(0.,0.,-1.));
#1317=DIRECTION('',(0.,1.,0.));
#1318=DIRECTION('',(0.,0.,-1.));
#1319=DIRECTION('',(-1.,0.,0.));
#1320=DIRECTION('',(0.,0.,1.));
#1321=DIRECTION('',(0.,-1.,0.));
#1322=DIRECTION('',(-1.,0.,0.));
#1323=DIRECTION('',(0.,0.,1.));
#1324=DIRECTION('',(0.,0.,-1.));
#1325=DIRECTION('',(-1.,0.,0.));
#1326=DIRECTION('',(0.,0.,1.));
#1327=DIRECTION('',(0.,-1.,0.));
#1328=DIRECTION('',(-1.,0.,0.));
#1329=DIRECTION('',(0.,0.,1.));
#1330=DIRECTION('',(-0.707106781187726,-0.707106781185369,0.));
#1331=DIRECTION('',(0.707106781185369,-0.707106781187726,0.));
#1332=DIRECTION('',(-0.707106781185369,0.707106781187726,0.));
#1333=DIRECTION('',(-0.707106781185369,0.707106781187726,0.));
#1334=DIRECTION('',(0.,1.,0.));
#1335=DIRECTION('',(0.,0.,1.));
#1336=DIRECTION('',(1.,0.,0.));
#1337=DIRECTION('',(0.,0.,-1.));
#1338=DIRECTION('',(1.,0.,0.));
#1339=DIRECTION('',(-0.706618794438324,0.707594431398756,0.));
#1340=DIRECTION('',(-0.707594431398756,-0.706618794438324,0.));
#1341=DIRECTION('',(0.707594431398756,0.706618794438324,0.));
#1342=DIRECTION('',(0.707594431398756,0.706618794438324,0.));
#1343=DIRECTION('',(0.707106781186657,0.707106781186438,0.));
#1344=DIRECTION('',(-0.707106781186438,0.707106781186657,0.));
#1345=DIRECTION('',(0.707106781186438,-0.707106781186657,0.));
#1346=DIRECTION('',(0.,0.,-1.));
#1347=DIRECTION('',(0.707106781186438,-0.707106781186657,0.));
#1348=DIRECTION('',(1.,0.,0.));
#1349=DIRECTION('',(0.,0.,-1.));
#1350=DIRECTION('',(0.,-1.,0.));
#1351=DIRECTION('',(0.,0.,-1.));
#1352=DIRECTION('',(0.,1.,0.));
#1353=DIRECTION('',(0.,0.,-1.));
#1354=DIRECTION('',(0.,-1.,0.));
#1355=DIRECTION('',(0.,-1.,0.));
#1356=DIRECTION('',(0.,0.,-1.));
#1357=DIRECTION('',(-0.670745000523603,-0.741688037029445,0.));
#1358=DIRECTION('',(0.741688037029446,-0.670745000523603,0.));
#1359=DIRECTION('',(-0.741688037029446,0.670745000523603,0.));
#1360=DIRECTION('',(-0.741688037029446,0.670745000523603,0.));
#1361=DIRECTION('',(0.706618794438324,-0.707594431398756,0.));
#1362=DIRECTION('',(0.707594431398756,0.706618794438324,0.));
#1363=DIRECTION('',(-0.707594431398756,-0.706618794438324,0.));
#1364=DIRECTION('',(0.,0.,-1.));
#1365=DIRECTION('',(-0.707594431398756,-0.706618794438324,0.));
#1366=DIRECTION('',(1.,0.,0.));
#1367=DIRECTION('',(0.,0.,-1.));
#1368=DIRECTION('',(0.,-1.,0.));
#1369=DIRECTION('',(0.,0.,-1.));
#1370=DIRECTION('',(0.,1.,0.));
#1371=DIRECTION('',(0.,0.,-1.));
#1372=DIRECTION('',(0.,0.,-1.));
#1373=DIRECTION('',(0.,-1.,0.));
#1374=DIRECTION('',(0.,-1.,0.));
#1375=DIRECTION('',(0.707594431398757,0.706618794438324,0.));
#1376=DIRECTION('',(-0.706618794438324,0.707594431398757,0.));
#1377=DIRECTION('',(0.706618794438324,-0.707594431398757,0.));
#1378=DIRECTION('',(0.706618794438324,-0.707594431398757,0.));
#1379=DIRECTION('',(-0.706618794438324,0.707594431398756,0.));
#1380=DIRECTION('',(-0.707594431398756,-0.706618794438324,0.));
#1381=DIRECTION('',(0.707594431398756,0.706618794438324,0.));
#1382=DIRECTION('',(0.,0.,-1.));
#1383=DIRECTION('',(0.707594431398756,0.706618794438324,0.));
#1384=DIRECTION('',(-0.0152086142835048,0.99988434233744,0.));
#1385=DIRECTION('',(-0.99988434233744,-0.0152086142835048,0.));
#1386=DIRECTION('',(0.99988434233744,0.0152086142835048,0.));
#1387=DIRECTION('',(0.99988434233744,0.0152086142835048,0.));
#1388=DIRECTION('',(0.707106781186487,-0.707106781186608,0.));
#1389=DIRECTION('',(0.707106781186608,0.707106781186487,0.));
#1390=DIRECTION('',(-0.707106781186608,-0.707106781186487,0.));
#1391=DIRECTION('',(-0.707106781186608,-0.707106781186487,0.));
#1392=DIRECTION('',(0.,0.,-1.));
#1393=DIRECTION('',(-1.,0.,0.));
#1394=DIRECTION('',(-1.,0.,0.));
#1395=DIRECTION('',(-1.,0.,0.));
#1396=DIRECTION('',(0.,1.,0.));
#1397=DIRECTION('',(0.,0.,1.));
#1398=DIRECTION('',(-1.,0.,0.));
#1399=DIRECTION('',(-1.,0.,0.));
#1400=DIRECTION('',(0.,0.,-1.));
#1401=DIRECTION('',(-1.,0.,0.));
#1402=DIRECTION('',(-1.,0.,0.));
#1403=DIRECTION('',(-1.,0.,0.));
#1404=DIRECTION('',(0.,1.,0.));
#1405=DIRECTION('',(0.,0.,1.));
#1406=DIRECTION('',(-1.,0.,0.));
#1407=DIRECTION('',(-1.,0.,0.));
#1408=DIRECTION('',(1.,0.,0.));
#1409=DIRECTION('',(0.,0.,-1.));
#1410=DIRECTION('',(-1.,0.,0.));
#1411=DIRECTION('',(0.,0.,1.));
#1412=DIRECTION('',(-1.,0.,0.));
#1413=DIRECTION('',(0.,0.,1.));
#1414=DIRECTION('',(1.,0.,0.));
#1415=DIRECTION('',(0.,0.,-1.));
#1416=DIRECTION('',(0.,0.,-1.));
#1417=DIRECTION('',(-1.,0.,0.));
#1418=DIRECTION('',(-0.692704446147286,0.721221568096644,0.));
#1419=DIRECTION('',(-0.692704446147286,0.721221568096644,0.));
#1420=DIRECTION('',(0.721221568096644,0.692704446147286,0.));
#1421=DIRECTION('',(-0.692704446147286,0.721221568096644,0.));
#1422=DIRECTION('',(-0.692704446147286,0.721221568096644,0.));
#1423=DIRECTION('',(-0.692704446147286,0.721221568096644,0.));
#1424=DIRECTION('',(0.,0.,-1.));
#1425=DIRECTION('',(-1.,0.,0.));
#1426=DIRECTION('',(-0.692704446147286,0.721221568096644,0.));
#1427=DIRECTION('',(-0.692704446147286,0.721221568096644,0.));
#1428=DIRECTION('',(0.721221568096644,0.692704446147286,0.));
#1429=DIRECTION('',(-0.692704446147286,0.721221568096644,0.));
#1430=DIRECTION('',(-0.692704446147286,0.721221568096644,0.));
#1431=DIRECTION('',(-0.692704446147286,0.721221568096644,0.));
#1432=DIRECTION('',(0.,0.,-1.));
#1433=DIRECTION('',(-1.,0.,0.));
#1434=DIRECTION('',(0.,-1.,0.));
#1435=DIRECTION('',(0.,-1.,0.));
#1436=DIRECTION('',(-1.,0.,0.));
#1437=DIRECTION('',(0.,0.,1.));
#1438=DIRECTION('',(0.,-1.,0.));
#1439=DIRECTION('',(0.,-1.,0.));
#1440=DIRECTION('',(0.,0.,-1.));
#1441=DIRECTION('',(-1.,0.,0.));
#1442=DIRECTION('',(0.,-1.,0.));
#1443=DIRECTION('',(0.,-1.,0.));
#1444=DIRECTION('',(-1.,0.,0.));
#1445=DIRECTION('',(0.,0.,1.));
#1446=DIRECTION('',(0.,-1.,0.));
#1447=DIRECTION('',(0.,-1.,0.));
#1448=DIRECTION('',(0.,0.,-1.));
#1449=DIRECTION('',(-1.,0.,0.));
#1450=DIRECTION('',(1.,0.,0.));
#1451=DIRECTION('',(1.,0.,0.));
#1452=DIRECTION('',(0.,-1.,0.));
#1453=DIRECTION('',(0.,0.,-1.));
#1454=DIRECTION('',(1.,0.,0.));
#1455=DIRECTION('',(0.,-1.,0.));
#1456=DIRECTION('',(0.,0.,-1.));
#1457=DIRECTION('',(1.,0.,0.));
#1458=DIRECTION('',(0.,0.,-1.));
#1459=DIRECTION('',(-1.,0.,0.));
#1460=DIRECTION('',(0.,1.,0.));
#1461=DIRECTION('',(0.,1.,0.));
#1462=DIRECTION('',(1.,0.,0.));
#1463=DIRECTION('',(0.,0.,-1.));
#1464=DIRECTION('',(0.,1.,0.));
#1465=DIRECTION('',(0.,0.,-1.));
#1466=DIRECTION('',(-1.,0.,0.));
#1467=DIRECTION('',(0.,1.,0.));
#1468=DIRECTION('',(1.,0.,0.));
#1469=DIRECTION('',(0.,0.,-1.));
#1470=DIRECTION('',(-0.692704446147286,0.721221568096644,0.));
#1471=DIRECTION('',(-0.721221568096644,-0.692704446147286,0.));
#1472=DIRECTION('',(0.692704446147286,-0.721221568096644,0.));
#1473=DIRECTION('',(0.721221568096644,0.692704446147286,0.));
#1474=DIRECTION('',(-0.692704446147286,0.721221568096644,0.));
#1475=DIRECTION('',(-0.721221568096644,-0.692704446147286,0.));
#1476=DIRECTION('',(0.692704446147286,-0.721221568096644,0.));
#1477=DIRECTION('',(0.721221568096644,0.692704446147286,0.));
#1478=DIRECTION('',(0.,1.,0.));
#1479=DIRECTION('',(0.,0.,1.));
#1480=DIRECTION('',(0.,-1.,0.));
#1481=DIRECTION('',(0.,0.,-1.));
#1482=DIRECTION('',(0.,1.,0.));
#1483=DIRECTION('',(0.,0.,1.));
#1484=DIRECTION('',(0.,-1.,0.));
#1485=DIRECTION('',(0.,0.,-1.));
#1486=DIRECTION('',(0.,0.,-1.));
#1487=DIRECTION('',(1.,0.,0.));
#1488=DIRECTION('',(0.,0.,-1.));
#1489=DIRECTION('',(1.,0.,0.));
#1490=DIRECTION('',(0.,0.,1.));
#1491=DIRECTION('',(1.,0.,0.));
#1492=DIRECTION('',(0.,0.,1.));
#1493=DIRECTION('',(1.,0.,0.));
#1494=CARTESIAN_POINT('',(0.,0.,0.));
#1495=CARTESIAN_POINT('',(0.0262890525781055,0.016497332994666,0.01143));
#1496=CARTESIAN_POINT('',(0.0262890525781055,0.016497332994666,0.));
#1497=CARTESIAN_POINT('',(0.015372291256825,0.016497332994666,0.));
#1498=CARTESIAN_POINT('',(0.037205813899386,0.016497332994666,0.));
#1499=CARTESIAN_POINT('',(0.037205813899386,0.016497332994666,0.01143));
#1500=CARTESIAN_POINT('',(0.037205813899386,0.016497332994666,0.01143));
#1501=CARTESIAN_POINT('',(0.0262890525781055,0.016497332994666,0.01143));
#1502=CARTESIAN_POINT('',(0.015372291256825,0.016497332994666,0.01143));
#1503=CARTESIAN_POINT('',(0.015372291256825,0.016497332994666,0.01143));
#1504=CARTESIAN_POINT('',(0.0262890525781055,0.016497332994666,0.00883870851248503));
#1505=CARTESIAN_POINT('',(0.0302414055913687,0.016497332994666,0.00883870851248503));
#1506=CARTESIAN_POINT('',(0.0161561649292708,0.016497332994666,0.00883870851248503));
#1507=CARTESIAN_POINT('',(0.0302414055913687,0.016497332994666,0.01143));
#1508=CARTESIAN_POINT('',(0.0302414055913687,0.016497332994666,0.00206084852106869));
#1509=CARTESIAN_POINT('',(0.0262890525781055,0.016497332994666,0.00206084852106869));
#1510=CARTESIAN_POINT('',(0.0161561649292708,0.016497332994666,0.00206084852106869));
#1511=CARTESIAN_POINT('',(0.0161561649292708,0.016497332994666,0.01143));
#1512=CARTESIAN_POINT('',(0.0260799152636175,0.0183257756621801,0.01143));
#1513=CARTESIAN_POINT('',(0.0372416377067566,0.0183257756621801,0.01143));
#1514=CARTESIAN_POINT('',(0.0372416377067566,0.0183257756621801,0.013716));
#1515=CARTESIAN_POINT('',(0.0372416377067566,0.0183257756621801,-0.001524));
#1516=CARTESIAN_POINT('',(0.0260799152636175,0.0183257756621801,-0.001524));
#1517=CARTESIAN_POINT('',(0.0149181928204783,0.0183257756621801,-0.001524));
#1518=CARTESIAN_POINT('',(0.0149181928204783,0.0183257756621801,0.01143));
#1519=CARTESIAN_POINT('',(0.0149181928204783,0.0183257756621801,0.013716));
#1520=CARTESIAN_POINT('',(0.0260799152636175,0.0183257756621801,0.013716));
#1521=CARTESIAN_POINT('',(0.0302414055913687,0.0183257756621801,0.00544977851677686));
#1522=CARTESIAN_POINT('',(0.0302414055913687,0.0183257756621801,0.00883870851248503));
#1523=CARTESIAN_POINT('',(0.0302414055913687,0.0183257756621801,0.00206084852106869));
#1524=CARTESIAN_POINT('',(0.0231987852603197,0.0183257756621801,0.00883870851248503));
#1525=CARTESIAN_POINT('',(0.0161561649292708,0.0183257756621801,0.00883870851248503));
#1526=CARTESIAN_POINT('',(0.0161561649292708,0.0183257756621801,0.00544977851677686));
#1527=CARTESIAN_POINT('',(0.0161561649292708,0.0183257756621801,0.00206084852106869));
#1528=CARTESIAN_POINT('',(0.0231987852603197,0.0183257756621801,0.00206084852106869));
#1529=CARTESIAN_POINT('',(0.0114935229870463,-0.02094234188468,0.01143));
#1530=CARTESIAN_POINT('',(0.0114935229870463,-0.02094234188468,0.));
#1531=CARTESIAN_POINT('',(0.0363168121213827,-0.02094234188468,0.));
#1532=CARTESIAN_POINT('',(-0.01332976614729,-0.02094234188468,0.));
#1533=CARTESIAN_POINT('',(-0.01332976614729,-0.02094234188468,0.01143));
#1534=CARTESIAN_POINT('',(-0.01332976614729,-0.02094234188468,0.01143));
#1535=CARTESIAN_POINT('',(0.0114935229870463,-0.02094234188468,0.01143));
#1536=CARTESIAN_POINT('',(0.0363168121213827,-0.02094234188468,0.01143));
#1537=CARTESIAN_POINT('',(0.0363168121213827,-0.02094234188468,0.01143));
#1538=CARTESIAN_POINT('',(0.0114935229870463,-0.02094234188468,0.00573863694444299));
#1539=CARTESIAN_POINT('',(9.81188998371366E-5,-0.02094234188468,0.00573863694444299));
#1540=CARTESIAN_POINT('',(0.00781973626792431,-0.02094234188468,0.00573863694444299));
#1541=CARTESIAN_POINT('',(9.81188998371363E-5,-0.02094234188468,0.00446863694444299));
#1542=CARTESIAN_POINT('',(-0.00117188110016286,-0.02094234188468,0.00446863694444299));
#1543=CARTESIAN_POINT('',(-0.00117188110016286,-0.02094234188468,0.01143));
#1544=CARTESIAN_POINT('',(-0.00117188110016286,-0.02094234188468,0.00217383627684787));
#1545=CARTESIAN_POINT('',(9.81188998371366E-5,-0.02094234188468,0.00217383627684787));
#1546=CARTESIAN_POINT('',(9.81188998371366E-5,-0.02094234188468,0.000903836276847869));
#1547=CARTESIAN_POINT('',(0.0114935229870463,-0.02094234188468,0.000903836276847869));
#1548=CARTESIAN_POINT('',(0.00781973626792431,-0.02094234188468,0.000903836276847869));
#1549=CARTESIAN_POINT('',(0.00781973626792431,-0.02094234188468,0.00217383627684787));
#1550=CARTESIAN_POINT('',(0.00908973626792431,-0.02094234188468,0.00217383627684787));
#1551=CARTESIAN_POINT('',(0.00908973626792431,-0.02094234188468,0.01143));
#1552=CARTESIAN_POINT('',(0.00908973626792431,-0.02094234188468,0.00446863694444299));
#1553=CARTESIAN_POINT('',(0.00781973626792431,-0.02094234188468,0.00446863694444299));
#1554=CARTESIAN_POINT('',(0.0119559357797333,-0.0236569375177655,0.01143));
#1555=CARTESIAN_POINT('',(-0.01332976614729,-0.0236569375177655,0.01143));
#1556=CARTESIAN_POINT('',(-0.01332976614729,-0.0236569375177655,0.013716));
#1557=CARTESIAN_POINT('',(-0.01332976614729,-0.0236569375177655,-0.001524));
#1558=CARTESIAN_POINT('',(0.0119559357797333,-0.0236569375177655,-0.001524));
#1559=CARTESIAN_POINT('',(0.0372416377067566,-0.0236569375177655,-0.001524));
#1560=CARTESIAN_POINT('',(0.0372416377067566,-0.0236569375177655,0.01143));
#1561=CARTESIAN_POINT('',(0.0372416377067566,-0.0236569375177655,0.013716));
#1562=CARTESIAN_POINT('',(0.0119559357797333,-0.0236569375177655,0.013716));
#1563=CARTESIAN_POINT('',(-0.00117188110016286,-0.0236569375177655,0.00332123661064543));
#1564=CARTESIAN_POINT('',(-0.00117188110016286,-0.0236569375177655,0.00446863694444299));
#1565=CARTESIAN_POINT('',(-0.00117188110016286,-0.0236569375177655,0.00217383627684787));
#1566=CARTESIAN_POINT('',(9.81188998371363E-5,-0.0236569375177655,0.00446863694444299));
#1567=CARTESIAN_POINT('',(9.81188998371366E-5,-0.0236569375177655,0.00573863694444299));
#1568=CARTESIAN_POINT('',(0.00395892758388073,-0.0236569375177655,0.00573863694444299));
#1569=CARTESIAN_POINT('',(0.00781973626792431,-0.0236569375177655,0.00573863694444299));
#1570=CARTESIAN_POINT('',(0.00781973626792431,-0.0236569375177655,0.00446863694444299));
#1571=CARTESIAN_POINT('',(0.00908973626792431,-0.0236569375177655,0.00446863694444299));
#1572=CARTESIAN_POINT('',(0.00908973626792431,-0.0236569375177655,0.00332123661064543));
#1573=CARTESIAN_POINT('',(0.00908973626792431,-0.0236569375177655,0.00217383627684787));
#1574=CARTESIAN_POINT('',(0.00781973626792431,-0.0236569375177655,0.00217383627684787));
#1575=CARTESIAN_POINT('',(0.00781973626792431,-0.0236569375177655,0.000903836276847869));
#1576=CARTESIAN_POINT('',(0.00395892758388073,-0.0236569375177655,0.000903836276847869));
#1577=CARTESIAN_POINT('',(9.81188998371366E-5,-0.0236569375177655,0.000903836276847869));
#1578=CARTESIAN_POINT('',(9.81188998371366E-5,-0.0236569375177655,0.00217383627684787));
#1579=CARTESIAN_POINT('',(-0.00957953890295067,0.0079285356009505,0.01143));
#1580=CARTESIAN_POINT('',(-0.00957953890295067,0.0079285356009505,0.));
#1581=CARTESIAN_POINT('',(-0.01433832867665,0.00316974582725,0.));
#1582=CARTESIAN_POINT('',(-0.00482074912925134,0.012687325374651,0.));
#1583=CARTESIAN_POINT('',(-0.00482074912925134,0.012687325374651,0.01143));
#1584=CARTESIAN_POINT('',(-0.00482074912925134,0.012687325374651,0.01143));
#1585=CARTESIAN_POINT('',(-0.00957953890295067,0.0079285356009505,0.01143));
#1586=CARTESIAN_POINT('',(-0.01433832867665,0.00316974582725,0.01143));
#1587=CARTESIAN_POINT('',(-0.01433832867665,0.00316974582725,0.01143));
#1588=CARTESIAN_POINT('',(-0.00957953890295067,0.0079285356009505,0.00548975920814435));
#1589=CARTESIAN_POINT('',(-0.00609926818992345,0.0114088063139786,0.00548975920814435));
#1590=CARTESIAN_POINT('',(-0.0112209148986984,0.00628715960520233,0.00548975920814435));
#1591=CARTESIAN_POINT('',(-0.00609926818992346,0.0114088063139786,0.00421975920814435));
#1592=CARTESIAN_POINT('',(-0.00520105994762094,0.0123070145562813,0.00421975920814435));
#1593=CARTESIAN_POINT('',(-0.00520105994762094,0.0123070145562813,0.01143));
#1594=CARTESIAN_POINT('',(-0.00520105994762094,0.0123070145562813,0.00226102757492778));
#1595=CARTESIAN_POINT('',(-0.00609926818992346,0.0114088063139786,0.00226102757492778));
#1596=CARTESIAN_POINT('',(-0.00609926818992345,0.0114088063139786,0.000991027574927781));
#1597=CARTESIAN_POINT('',(-0.00957953890295067,0.0079285356009505,0.000991027574927781));
#1598=CARTESIAN_POINT('',(-0.0112209148986984,0.00628715960520233,0.000991027574927781));
#1599=CARTESIAN_POINT('',(-0.0112209148986984,0.00628715960520233,0.00226102757492778));
#1600=CARTESIAN_POINT('',(-0.012119123141001,0.00538895136289959,0.00226102757492778));
#1601=CARTESIAN_POINT('',(-0.012119123141001,0.00538895136289959,0.01143));
#1602=CARTESIAN_POINT('',(-0.012119123141001,0.00538895136289959,0.00421975920814435));
#1603=CARTESIAN_POINT('',(-0.0112209148986984,0.00628715960520233,0.00421975920814435));
#1604=CARTESIAN_POINT('',(-0.011997475521639,0.0090889073136946,0.01143));
#1605=CARTESIAN_POINT('',(-0.00654823752120137,0.0143226822838187,0.01143));
#1606=CARTESIAN_POINT('',(-0.00654823752120137,0.0143226822838187,0.013716));
#1607=CARTESIAN_POINT('',(-0.00654823752120137,0.0143226822838187,-0.001524));
#1608=CARTESIAN_POINT('',(-0.011997475521639,0.0090889073136946,-0.001524));
#1609=CARTESIAN_POINT('',(-0.0174467135220766,0.00385513234357049,-0.001524));
#1610=CARTESIAN_POINT('',(-0.0174467135220766,0.00385513234357049,0.01143));
#1611=CARTESIAN_POINT('',(-0.0174467135220766,0.00385513234357049,0.013716));
#1612=CARTESIAN_POINT('',(-0.011997475521639,0.0090889073136946,0.013716));
#1613=CARTESIAN_POINT('',(-0.00685450316001323,0.0140285263973454,0.00324039339153607));
#1614=CARTESIAN_POINT('',(-0.00685450316001323,0.0140285263973454,0.00421975920814435));
#1615=CARTESIAN_POINT('',(-0.00685450316001323,0.0140285263973454,0.00226102757492778));
#1616=CARTESIAN_POINT('',(-0.00777045455149597,0.0131487917507384,0.00421975920814435));
#1617=CARTESIAN_POINT('',(-0.00777045455149597,0.0131487917507384,0.00548975920814435));
#1618=CARTESIAN_POINT('',(-0.010070293251625,0.0109398887402457,0.00548975920814435));
#1619=CARTESIAN_POINT('',(-0.0129932739475414,0.00813248278675005,0.00548975920814435));
#1620=CARTESIAN_POINT('',(-0.0129932739475414,0.00813248278675005,0.00421975920814435));
#1621=CARTESIAN_POINT('',(-0.0139092253390241,0.007252748140143,0.00421975920814435));
#1622=CARTESIAN_POINT('',(-0.0139092253390241,0.007252748140143,0.00324039339153607));
#1623=CARTESIAN_POINT('',(-0.0139092253390241,0.007252748140143,0.00226102757492778));
#1624=CARTESIAN_POINT('',(-0.0129932739475414,0.00813248278675005,0.00226102757492778));
#1625=CARTESIAN_POINT('',(-0.0129932739475414,0.00813248278675005,0.000991027574927781));
#1626=CARTESIAN_POINT('',(-0.0103818642495187,0.0106406372687442,0.000991027574927781));
#1627=CARTESIAN_POINT('',(-0.00777045455149597,0.0131487917507384,0.000991027574927781));
#1628=CARTESIAN_POINT('',(-0.00777045455149597,0.0131487917507384,0.00226102757492778));
#1629=CARTESIAN_POINT('',(-0.01433832867665,-0.00838201676403332,0.01143));
#1630=CARTESIAN_POINT('',(-0.01433832867665,-0.00838201676403332,0.));
#1631=CARTESIAN_POINT('',(-0.01433832867665,-0.0199337793553166,0.));
#1632=CARTESIAN_POINT('',(-0.01433832867665,-0.00838201676403332,0.01143));
#1633=CARTESIAN_POINT('',(-0.01433832867665,-0.0199337793553166,0.01143));
#1634=CARTESIAN_POINT('',(-0.01433832867665,-0.0199337793553166,0.01143));
#1635=CARTESIAN_POINT('',(-0.01433832867665,-0.00838201676403332,0.00506023969501257));
#1636=CARTESIAN_POINT('',(-0.01433832867665,-0.0045143052623421,0.00506023969501257));
#1637=CARTESIAN_POINT('',(-0.01433832867665,-0.011295178796649,0.00506023969501257));
#1638=CARTESIAN_POINT('',(-0.01433832867665,-0.0045143052623421,0.00379023969501257));
#1639=CARTESIAN_POINT('',(-0.01433832867665,-0.00324430526234209,0.00379023969501257));
#1640=CARTESIAN_POINT('',(-0.01433832867665,-0.00324430526234209,0.01143));
#1641=CARTESIAN_POINT('',(-0.01433832867665,-0.00324430526234209,0.00280649447020143));
#1642=CARTESIAN_POINT('',(-0.01433832867665,-0.0045143052623421,0.00280649447020143));
#1643=CARTESIAN_POINT('',(-0.01433832867665,-0.0045143052623421,0.00153649447020144));
#1644=CARTESIAN_POINT('',(-0.01433832867665,-0.00838201676403332,0.00153649447020144));
#1645=CARTESIAN_POINT('',(-0.01433832867665,-0.011295178796649,0.00153649447020144));
#1646=CARTESIAN_POINT('',(-0.01433832867665,-0.011295178796649,0.00280649447020143));
#1647=CARTESIAN_POINT('',(-0.01433832867665,-0.012565178796649,0.00280649447020143));
#1648=CARTESIAN_POINT('',(-0.01433832867665,-0.012565178796649,0.01143));
#1649=CARTESIAN_POINT('',(-0.01433832867665,-0.012565178796649,0.00379023969501257));
#1650=CARTESIAN_POINT('',(-0.01433832867665,-0.011295178796649,0.00379023969501257));
#1651=CARTESIAN_POINT('',(-0.0174467135220766,-0.00803932350587308,0.01143));
#1652=CARTESIAN_POINT('',(-0.0174467135220766,-0.00803932350587308,-0.001524));
#1653=CARTESIAN_POINT('',(-0.0174467135220766,-0.0199337793553166,-0.001524));
#1654=CARTESIAN_POINT('',(-0.0174467135220766,-0.0199337793553166,0.01143));
#1655=CARTESIAN_POINT('',(-0.0174467135220766,-0.0199337793553166,0.013716));
#1656=CARTESIAN_POINT('',(-0.0174467135220766,-0.00803932350587308,0.013716));
#1657=CARTESIAN_POINT('',(-0.0174467135220766,-0.00324430526234209,0.003298367082607));
#1658=CARTESIAN_POINT('',(-0.0174467135220766,-0.00324430526234209,0.00379023969501257));
#1659=CARTESIAN_POINT('',(-0.0174467135220766,-0.00324430526234209,0.00280649447020143));
#1660=CARTESIAN_POINT('',(-0.0174467135220766,-0.0045143052623421,0.00379023969501257));
#1661=CARTESIAN_POINT('',(-0.0174467135220766,-0.0045143052623421,0.00506023969501257));
#1662=CARTESIAN_POINT('',(-0.0174467135220766,-0.00790474202949554,0.00506023969501257));
#1663=CARTESIAN_POINT('',(-0.0174467135220766,-0.011295178796649,0.00506023969501257));
#1664=CARTESIAN_POINT('',(-0.0174467135220766,-0.011295178796649,0.00379023969501257));
#1665=CARTESIAN_POINT('',(-0.0174467135220766,-0.012565178796649,0.00379023969501257));
#1666=CARTESIAN_POINT('',(-0.0174467135220766,-0.012565178796649,0.003298367082607));
#1667=CARTESIAN_POINT('',(-0.0174467135220766,-0.012565178796649,0.00280649447020143));
#1668=CARTESIAN_POINT('',(-0.0174467135220766,-0.011295178796649,0.00280649447020143));
#1669=CARTESIAN_POINT('',(-0.0174467135220766,-0.011295178796649,0.00153649447020144));
#1670=CARTESIAN_POINT('',(-0.0174467135220766,-0.00790474202949554,0.00153649447020144));
#1671=CARTESIAN_POINT('',(-0.0174467135220766,-0.0045143052623421,0.00153649447020144));
#1672=CARTESIAN_POINT('',(-0.0174467135220766,-0.0045143052623421,0.00280649447020143));
#1673=CARTESIAN_POINT('',(-0.01383404741197,-0.0204380606199983,0.01143));
#1674=CARTESIAN_POINT('',(-0.01383404741197,-0.0204380606199983,0.));
#1675=CARTESIAN_POINT('',(-0.01383404741197,-0.0204380606199983,0.01143));
#1676=CARTESIAN_POINT('',(0.00336813699239733,0.012687325374651,0.01143));
#1677=CARTESIAN_POINT('',(0.00336813699239733,0.012687325374651,0.));
#1678=CARTESIAN_POINT('',(0.011557023114046,0.012687325374651,0.));
#1679=CARTESIAN_POINT('',(0.011557023114046,0.012687325374651,0.01143));
#1680=CARTESIAN_POINT('',(0.011557023114046,0.012687325374651,0.01143));
#1681=CARTESIAN_POINT('',(0.00336813699239733,0.012687325374651,0.01143));
#1682=CARTESIAN_POINT('',(0.0134646571854355,0.0145923291846585,0.01143));
#1683=CARTESIAN_POINT('',(0.0134646571854355,0.0145923291846585,0.));
#1684=CARTESIAN_POINT('',(0.0134646571854355,0.0145923291846585,0.01143));
#1685=CARTESIAN_POINT('',(0.0377735952910695,0.0159295516029823,0.01143));
#1686=CARTESIAN_POINT('',(0.0377735952910695,0.0159295516029823,0.));
#1687=CARTESIAN_POINT('',(0.038341376682753,0.0153617702112987,0.));
#1688=CARTESIAN_POINT('',(0.038341376682753,0.0153617702112987,0.01143));
#1689=CARTESIAN_POINT('',(0.038341376682753,0.0153617702112987,0.01143));
#1690=CARTESIAN_POINT('',(0.0377735952910695,0.0159295516029823,0.01143));
#1691=CARTESIAN_POINT('',(0.038341376682753,-0.00177800355600567,0.01143));
#1692=CARTESIAN_POINT('',(0.038341376682753,-0.00177800355600567,0.01143));
#1693=CARTESIAN_POINT('',(0.038341376682753,-0.0185803882777691,0.01143));
#1694=CARTESIAN_POINT('',(0.038341376682753,-0.01891777732331,0.01143));
#1695=CARTESIAN_POINT('',(0.038341376682753,-0.0185803882777691,0.01143));
#1696=CARTESIAN_POINT('',(0.038341376682753,-0.0185803882777691,0.00490573140136898));
#1697=CARTESIAN_POINT('',(0.038341376682753,-0.00177800355600567,0.00490573140136898));
#1698=CARTESIAN_POINT('',(0.038341376682753,-0.00494263460859656,0.00490573140136898));
#1699=CARTESIAN_POINT('',(0.038341376682753,-0.00494263460859656,0.01143));
#1700=CARTESIAN_POINT('',(0.038341376682753,-0.00494263460859656,0.01143));
#1701=CARTESIAN_POINT('',(0.038341376682753,-0.00177800355600567,0.01143));
#1702=CARTESIAN_POINT('',(0.038341376682753,-0.00177800355600567,0.));
#1703=CARTESIAN_POINT('',(0.038341376682753,-0.01891777732331,0.));
#1704=CARTESIAN_POINT('',(0.038341376682753,-0.01891777732331,0.01143));
#1705=CARTESIAN_POINT('',(-0.0153882398346833,-0.0217953584365411,0.01143));
#1706=CARTESIAN_POINT('',(-0.0153882398346833,-0.0217953584365411,-0.001524));
#1707=CARTESIAN_POINT('',(-0.0153882398346833,-0.0217953584365411,0.013716));
#1708=CARTESIAN_POINT('',(0.0391057870923244,-0.0217953584365411,0.01143));
#1709=CARTESIAN_POINT('',(0.0391057870923244,-0.0217953584365411,-0.001524));
#1710=CARTESIAN_POINT('',(0.0409699364778921,-0.0199337793553166,-0.001524));
#1711=CARTESIAN_POINT('',(0.0409699364778921,-0.0199337793553166,0.01143));
#1712=CARTESIAN_POINT('',(0.0409699364778921,-0.0199337793553166,0.013716));
#1713=CARTESIAN_POINT('',(0.0391057870923244,-0.0217953584365411,0.013716));
#1714=CARTESIAN_POINT('',(0.0409699364778921,-0.00267072508532908,0.01143));
#1715=CARTESIAN_POINT('',(0.0409699364778921,-0.00267072508532908,0.01143));
#1716=CARTESIAN_POINT('',(0.0409699364778921,-0.00494263460859656,0.01143));
#1717=CARTESIAN_POINT('',(0.0409699364778921,-0.0185803882777691,0.01143));
#1718=CARTESIAN_POINT('',(0.0409699364778921,-0.00494263460859656,0.00816786570068449));
#1719=CARTESIAN_POINT('',(0.0409699364778921,-0.00494263460859656,0.00490573140136898));
#1720=CARTESIAN_POINT('',(0.0409699364778921,-0.0117615114431828,0.00490573140136898));
#1721=CARTESIAN_POINT('',(0.0409699364778921,-0.0185803882777691,0.00490573140136898));
#1722=CARTESIAN_POINT('',(0.0409699364778921,-0.0185803882777691,0.00816786570068449));
#1723=CARTESIAN_POINT('',(0.0409699364778921,0.0145923291846585,0.01143));
#1724=CARTESIAN_POINT('',(0.0409699364778921,0.0145923291846585,0.013716));
#1725=CARTESIAN_POINT('',(0.0409699364778921,0.0145923291846585,-0.001524));
#1726=CARTESIAN_POINT('',(0.0409699364778921,-0.00267072508532908,0.013716));
#1727=CARTESIAN_POINT('',(0.0409699364778921,-0.00267072508532908,-0.001524));
#1728=CARTESIAN_POINT('',(0.0400187478902664,0.0155448310896623,0.01143));
#1729=CARTESIAN_POINT('',(0.0400187478902664,0.0155448310896623,-0.001524));
#1730=CARTESIAN_POINT('',(0.0400187478902664,0.0155448310896623,0.013716));
#1731=CARTESIAN_POINT('',(0.0130488921747748,0.0164590524234193,0.01143));
#1732=CARTESIAN_POINT('',(0.0130488921747748,0.0164590524234193,-0.001524));
#1733=CARTESIAN_POINT('',(0.0111795915290713,0.0145923291846585,-0.001524));
#1734=CARTESIAN_POINT('',(0.0111795915290713,0.0145923291846585,0.01143));
#1735=CARTESIAN_POINT('',(0.0111795915290713,0.0145923291846585,0.013716));
#1736=CARTESIAN_POINT('',(0.0130488921747748,0.0164590524234193,0.013716));
#1737=CARTESIAN_POINT('',(0.00231567700393498,0.0144575057342386,0.01143));
#1738=CARTESIAN_POINT('',(0.00231567700393498,0.0144575057342386,-0.001524));
#1739=CARTESIAN_POINT('',(0.00231567700393498,0.0144575057342386,0.013716));
#1740=CARTESIAN_POINT('',(0.0373290944020679,-0.019930059603995,0.01143));
#1741=CARTESIAN_POINT('',(0.0373290944020679,-0.019930059603995,0.));
#1742=CARTESIAN_POINT('',(0.0373290944020679,-0.019930059603995,0.01143));
#1743=CARTESIAN_POINT('',(-0.0120873135220766,-0.00790474202949554,0.00506023969501257));
#1744=CARTESIAN_POINT('',(-0.0174467135220766,-0.011295178796649,0.00506023969501257));
#1745=CARTESIAN_POINT('',(-0.0120873135220766,-0.0045143052623421,0.00506023969501257));
#1746=CARTESIAN_POINT('',(-0.0120873135220766,-0.00324430526234209,0.003298367082607));
#1747=CARTESIAN_POINT('',(-0.0120873135220766,-0.00324430526234209,0.00379023969501257));
#1748=CARTESIAN_POINT('',(-0.01433832867665,-0.00324430526234209,0.00280649447020143));
#1749=CARTESIAN_POINT('',(-0.0120873135220766,-0.00790474202949554,0.00153649447020144));
#1750=CARTESIAN_POINT('',(-0.0120873135220766,-0.011295178796649,0.00153649447020144));
#1751=CARTESIAN_POINT('',(-0.0174467135220766,-0.0045143052623421,0.00153649447020144));
#1752=CARTESIAN_POINT('',(-0.0120873135220766,-0.012565178796649,0.003298367082607));
#1753=CARTESIAN_POINT('',(-0.01433832867665,-0.012565178796649,0.00379023969501257));
#1754=CARTESIAN_POINT('',(-0.0120873135220766,-0.012565178796649,0.00280649447020143));
#1755=CARTESIAN_POINT('',(-0.0120873135220766,-0.011295178796649,0.00379023969501257));
#1756=CARTESIAN_POINT('',(-0.0120873135220766,-0.0045143052623421,0.00379023969501257));
#1757=CARTESIAN_POINT('',(-0.0120873135220766,-0.011295178796649,0.00280649447020143));
#1758=CARTESIAN_POINT('',(-0.0120873135220766,-0.0045143052623421,0.00280649447020143));
#1759=CARTESIAN_POINT('',(-0.00567162001858971,0.00636013178283199,0.00548975920814435));
#1760=CARTESIAN_POINT('',(-0.0033717813184607,0.0085690347933247,0.00548975920814435));
#1761=CARTESIAN_POINT('',(-0.0129932739475414,0.00813248278675005,0.00548975920814435));
#1762=CARTESIAN_POINT('',(-0.00245582992697797,0.00944876943993175,0.00324039339153607));
#1763=CARTESIAN_POINT('',(-0.00245582992697797,0.00944876943993175,0.00421975920814435));
#1764=CARTESIAN_POINT('',(-0.00520105994762094,0.0123070145562813,0.00226102757492778));
#1765=CARTESIAN_POINT('',(-0.0059831910164834,0.00606088031133053,0.000991027574927781));
#1766=CARTESIAN_POINT('',(-0.0085946007145061,0.00355272582933636,0.000991027574927781));
#1767=CARTESIAN_POINT('',(-0.00777045455149597,0.0131487917507384,0.000991027574927781));
#1768=CARTESIAN_POINT('',(-0.00951055210598883,0.00267299118272931,0.00324039339153607));
#1769=CARTESIAN_POINT('',(-0.012119123141001,0.00538895136289958,0.00421975920814435));
#1770=CARTESIAN_POINT('',(-0.00951055210598883,0.00267299118272931,0.00226102757492778));
#1771=CARTESIAN_POINT('',(0.00395892758388073,-0.0173069375177655,0.00573863694444299));
#1772=CARTESIAN_POINT('',(0.00781973626792431,-0.0236569375177655,0.00573863694444299));
#1773=CARTESIAN_POINT('',(9.81188998371366E-5,-0.0173069375177655,0.00573863694444299));
#1774=CARTESIAN_POINT('',(-0.00117188110016286,-0.0173069375177655,0.00332123661064543));
#1775=CARTESIAN_POINT('',(-0.00117188110016286,-0.02094234188468,0.00217383627684787));
#1776=CARTESIAN_POINT('',(-0.00117188110016286,-0.0173069375177655,0.00446863694444299));
#1777=CARTESIAN_POINT('',(0.00395892758388073,-0.0173069375177655,0.000903836276847869));
#1778=CARTESIAN_POINT('',(9.81188998371366E-5,-0.0236569375177655,0.000903836276847869));
#1779=CARTESIAN_POINT('',(0.00781973626792431,-0.0173069375177655,0.000903836276847869));
#1780=CARTESIAN_POINT('',(0.00908973626792431,-0.0173069375177655,0.00332123661064543));
#1781=CARTESIAN_POINT('',(0.00908973626792431,-0.0173069375177655,0.00217383627684787));
#1782=CARTESIAN_POINT('',(0.00908973626792431,-0.02094234188468,0.00446863694444299));
#1783=CARTESIAN_POINT('',(0.0346199364778921,-0.0117615114431828,0.00490573140136898));
#1784=CARTESIAN_POINT('',(0.0346199364778921,-0.0185803882777691,0.00490573140136898));
#1785=CARTESIAN_POINT('',(0.0346199364778921,-0.00494263460859656,0.00490573140136898));
#1786=CARTESIAN_POINT('',(0.0346199364778921,-0.0185803882777691,0.00816786570068449));
#1787=CARTESIAN_POINT('',(0.0346199364778921,-0.0185803882777691,0.01143));
#1788=CARTESIAN_POINT('',(0.0346199364778921,-0.00494263460859656,0.00816786570068449));
#1789=CARTESIAN_POINT('',(0.0346199364778921,-0.00494263460859656,0.01143));
#1790=CARTESIAN_POINT('',(0.0231987852603197,0.0119757756621801,0.00883870851248503));
#1791=CARTESIAN_POINT('',(0.0161561649292708,0.0119757756621801,0.00883870851248503));
#1792=CARTESIAN_POINT('',(0.0302414055913687,0.0119757756621801,0.00883870851248503));
#1793=CARTESIAN_POINT('',(0.0302414055913687,0.0119757756621801,0.00544977851677686));
#1794=CARTESIAN_POINT('',(0.0302414055913687,0.0119757756621801,0.00206084852106869));
#1795=CARTESIAN_POINT('',(0.0231987852603197,0.0119757756621801,0.00206084852106869));
#1796=CARTESIAN_POINT('',(0.0161561649292708,0.0119757756621801,0.00206084852106869));
#1797=CARTESIAN_POINT('',(0.0161561649292708,0.0119757756621801,0.00544977851677686));
#1798=CARTESIAN_POINT('',(-0.0033717813184607,0.0085690347933247,0.00421975920814435));
#1799=CARTESIAN_POINT('',(-0.0085946007145061,0.00355272582933636,0.00421975920814435));
#1800=CARTESIAN_POINT('',(-0.0085946007145061,0.00355272582933636,0.00226102757492778));
#1801=CARTESIAN_POINT('',(-0.0033717813184607,0.0085690347933247,0.00226102757492778));
#1802=CARTESIAN_POINT('',(9.81188998371366E-5,-0.0173069375177655,0.00217383627684787));
#1803=CARTESIAN_POINT('',(0.00781973626792431,-0.0173069375177655,0.00217383627684787));
#1804=CARTESIAN_POINT('',(0.00781973626792431,-0.0173069375177655,0.00446863694444299));
#1805=CARTESIAN_POINT('',(9.81188998371363E-5,-0.0173069375177655,0.00446863694444299));
#1806=CARTESIAN_POINT('',(0.0117616114779077,-0.00266558092779272,0.));
#1807=CARTESIAN_POINT('',(0.0117616114779077,-0.00266558092779272,-0.001524));
#1808=CARTESIAN_POINT('',(0.0117616114779077,-0.00266558092779272,0.01143));
#1809=CARTESIAN_POINT('',(0.0117616114779077,-0.00266558092779272,0.013716));
#1810=MECHANICAL_DESIGN_GEOMETRIC_PRESENTATION_REPRESENTATION('',(#1111),
#1811);
#1811=(
GEOMETRIC_REPRESENTATION_CONTEXT(3)
GLOBAL_UNCERTAINTY_ASSIGNED_CONTEXT((#1812))
GLOBAL_UNIT_ASSIGNED_CONTEXT((#1815,#1814,#1813))
REPRESENTATION_CONTEXT('Part 1','TOP_LEVEL_ASSEMBLY_PART')
);
#1812=UNCERTAINTY_MEASURE_WITH_UNIT(LENGTH_MEASURE(1.E-8),#1815,
'DISTANCE_ACCURACY_VALUE','Maximum Tolerance applied to model');
#1813=(
NAMED_UNIT(*)
SI_UNIT($,.STERADIAN.)
SOLID_ANGLE_UNIT()
);
#1814=(
NAMED_UNIT(*)
PLANE_ANGLE_UNIT()
SI_UNIT($,.RADIAN.)
);
#1815=(
LENGTH_UNIT()
NAMED_UNIT(*)
SI_UNIT($,.METRE.)
);
#1816=PRODUCT_DEFINITION_SHAPE('','',#1817);
#1817=PRODUCT_DEFINITION('','',#1819,#1818);
#1818=PRODUCT_DEFINITION_CONTEXT('',#1825,'design');
#1819=PRODUCT_DEFINITION_FORMATION_WITH_SPECIFIED_SOURCE('','',#1821,
 .NOT_KNOWN.);
#1820=PRODUCT_RELATED_PRODUCT_CATEGORY('','',(#1821));
#1821=PRODUCT('Part 1','Part 1','Part 1',(#1823));
#1822=PRODUCT_CATEGORY('','');
#1823=PRODUCT_CONTEXT('',#1825,'mechanical');
#1824=APPLICATION_PROTOCOL_DEFINITION('international standard',
'ap242_managed_model_based_3d_engineering',2020,#1825);
#1825=APPLICATION_CONTEXT('managed model based 3d engineering');
ENDSEC;
END-ISO-10303-21;
