;TYPE=PLATED
;Layer: PTH_Through
;EasyEDA Pro Client v2.2.45.4, 2026-04-04 15:55:22
;Gerber Generator version 0.3
M48
METRIC,LZ,0000.00000
;Hole size 1 = 0.30500 METRIC
T01C0.30500
;Hole size 2 = 0.60000 METRIC
T02C0.60000
;Hole size 3 = 0.70002 METRIC
T03C0.70002
%
G05
G90
T01
X25.33498Y-1.143
X19.65398Y1.143
X16.637Y-0.508
X15.0909Y-10.033
X25.45323Y-6.223
X17.145Y-7.366
X-1.397Y-10.922
X-0.254Y-8.763
X10.033Y-17.61825
X15.113Y-18.796
X15.24Y-15.875
X19.431Y-15.875
X19.304Y-18.923
X23.241Y-19.05
X23.368Y-15.113
X26.67Y-19.2971
T02
X-0.41341Y-12.96819G85X-0.41341Y-13.86818
X8.23661Y-12.9682G85X8.23661Y-13.86822
X-0.41346Y-17.31825G85X-0.41346Y-17.91825
X8.23651Y-17.31825G85X8.23651Y-17.91825
X-0.12567Y6.25925G85X-0.76207Y6.89565
X-6.24217Y0.14278G85X-6.87858Y0.77919
X-3.2016Y9.33525G85X-3.62586Y9.75952
X-9.31805Y3.2188G85X-9.74231Y3.64306
X-6.61496Y-3.54907G85X-7.51496Y-3.54907
X-6.61497Y-12.19909G85X-7.515Y-12.19909
X-10.96503Y-3.54901G85X-11.56503Y-3.54901
X-10.96503Y-12.19898G85X-11.56503Y-12.19898
T03
X16.70377Y12.11885G85X16.70377Y13.91882
X29.60392Y12.11885G85X29.60392Y13.91882
X33.34316Y-5.47973G85X35.14314Y-5.47973
X33.34316Y-18.37988G85X35.14314Y-18.37988
M30