G04 Layer: TopPasteMaskLayer*
G04 EasyEDA Pro v2.2.45.4, 2026-04-04 15:55:22*
G04 Gerber Generator version 0.3*
G04 Scale: 100 percent, Rotated: No, Reflected: No*
G04 Dimensions in millimeters*
G04 Leading zeros omitted, absolute positions, 4 integers and 5 decimals*
G04 Generated by one-click*
%FSLAX45Y45*%
%MOMM*%
%ADD10R,0.8X0.9*%
%ADD11R,0.9X0.8*%
%ADD12R,1.2X0.25001*%
%ADD13C,0.9195*%
G75*


G04 PolygonModel Start*
G36*
G01X767202Y-958301D02*
G01X687202Y-958301D01*
G01X682201Y-963303D01*
G01X682201Y-986099D01*
G01X719201Y-986099D01*
G01X719201Y-1019099D01*
G01X682201Y-1019099D01*
G01X682201Y-1043302D01*
G01X687202Y-1048301D01*
G01X767202Y-1048301D01*
G01X772201Y-1043302D01*
G01X772201Y-963303D01*
G01X767202Y-958301D01*
G37*
G36*
G01X528198Y-1048299D02*
G01X608198Y-1048299D01*
G01X613199Y-1043297D01*
G01X613199Y-1020501D01*
G01X576199Y-1020501D01*
G01X576199Y-987501D01*
G01X613199Y-987501D01*
G01X613199Y-963298D01*
G01X608198Y-958299D01*
G01X528198Y-958299D01*
G01X523199Y-963298D01*
G01X523199Y-1043297D01*
G01X528198Y-1048299D01*
G37*
G36*
G01X96398Y-921299D02*
G01X176398Y-921299D01*
G01X181399Y-916297D01*
G01X181399Y-893501D01*
G01X144399Y-893501D01*
G01X144399Y-860501D01*
G01X181399Y-860501D01*
G01X181399Y-836298D01*
G01X176398Y-831299D01*
G01X96398Y-831299D01*
G01X91399Y-836298D01*
G01X91399Y-916297D01*
G01X96398Y-921299D01*
G37*
G36*
G01X335402Y-831301D02*
G01X255402Y-831301D01*
G01X250401Y-836303D01*
G01X250401Y-859099D01*
G01X287401Y-859099D01*
G01X287401Y-892099D01*
G01X250401Y-892099D01*
G01X250401Y-916302D01*
G01X255402Y-921301D01*
G01X335402Y-921301D01*
G01X340401Y-916302D01*
G01X340401Y-836303D01*
G01X335402Y-831301D01*
G37*
G36*
G01X-231336Y-229726D02*
G01X-174768Y-173158D01*
G01X-174768Y-166085D01*
G01X-190887Y-149965D01*
G01X-217050Y-176128D01*
G01X-240385Y-152794D01*
G01X-214222Y-126631D01*
G01X-231336Y-109516D01*
G01X-238407Y-109518D01*
G01X-294976Y-166087D01*
G01X-294976Y-173156D01*
G01X-238407Y-229724D01*
G01X-231336Y-229726D01*
G37*
G36*
G01X-125973Y2913D02*
G01X-182541Y-53656D01*
G01X-182541Y-60728D01*
G01X-166422Y-76848D01*
G01X-140258Y-50685D01*
G01X-116924Y-74019D01*
G01X-143087Y-100182D01*
G01X-125973Y-117297D01*
G01X-118902Y-117295D01*
G01X-62333Y-60727D01*
G01X-62333Y-53657D01*
G01X-118902Y2911D01*
G01X-125973Y2913D01*
G37*
G36*
G01X52682Y497319D02*
G01X-3887Y440751D01*
G01X-3887Y433678D01*
G01X12233Y417559D01*
G01X38396Y443722D01*
G01X61730Y420387D01*
G01X35567Y394224D01*
G01X52682Y377110D01*
G01X59753Y377112D01*
G01X116321Y433680D01*
G01X116321Y440749D01*
G01X59753Y497318D01*
G01X52682Y497319D01*
G37*
G36*
G01X-52682Y264681D02*
G01X3887Y321249D01*
G01X3887Y328322D01*
G01X-12233Y344441D01*
G01X-38396Y318278D01*
G01X-61730Y341613D01*
G01X-35567Y367776D01*
G01X-52682Y384890D01*
G01X-59753Y384888D01*
G01X-116321Y328320D01*
G01X-116321Y321251D01*
G01X-59753Y264682D01*
G01X-52682Y264681D01*
G37*
G36*
G01X-336001Y-1046602D02*
G01X-336001Y-966602D01*
G01X-341003Y-961601D01*
G01X-363799Y-961601D01*
G01X-363799Y-998601D01*
G01X-396799Y-998601D01*
G01X-396799Y-961601D01*
G01X-421002Y-961601D01*
G01X-426001Y-966602D01*
G01X-426001Y-1046602D01*
G01X-421002Y-1051601D01*
G01X-341003Y-1051601D01*
G01X-336001Y-1046602D01*
G37*
G36*
G01X-425999Y-807598D02*
G01X-425999Y-887598D01*
G01X-420997Y-892599D01*
G01X-398201Y-892599D01*
G01X-398201Y-855599D01*
G01X-365201Y-855599D01*
G01X-365201Y-892599D01*
G01X-340998Y-892599D01*
G01X-335999Y-887598D01*
G01X-335999Y-807598D01*
G01X-340998Y-802599D01*
G01X-420997Y-802599D01*
G01X-425999Y-807598D01*
G37*
G36*
G01X-393098Y-414602D02*
G01X-393098Y-494601D01*
G01X-388097Y-499603D01*
G01X-365300Y-499603D01*
G01X-365300Y-462603D01*
G01X-332301Y-462603D01*
G01X-332301Y-499603D01*
G01X-308097Y-499603D01*
G01X-303098Y-494601D01*
G01X-303098Y-414602D01*
G01X-308097Y-409603D01*
G01X-388097Y-409603D01*
G01X-393098Y-414602D01*
G37*
G36*
G01X-303101Y-653605D02*
G01X-303101Y-573606D01*
G01X-308102Y-568604D01*
G01X-330898Y-568604D01*
G01X-330898Y-605605D01*
G01X-363898Y-605605D01*
G01X-363898Y-568604D01*
G01X-388102Y-568604D01*
G01X-393101Y-573606D01*
G01X-393101Y-653605D01*
G01X-388102Y-658604D01*
G01X-308102Y-658604D01*
G01X-303101Y-653605D01*
G37*
G36*
G01X531160Y-1341818D02*
G01X531160Y-1231819D01*
G01X501157Y-1231819D01*
G01X501157Y-1341818D01*
G01X531160Y-1341818D01*
G37*
G36*
G01X551170Y-1231819D02*
G01X551170Y-1341818D01*
G01X581172Y-1341818D01*
G01X581172Y-1231819D01*
G01X551170Y-1231819D01*
G37*
G36*
G01X41151Y-1231819D02*
G01X41151Y-1341818D01*
G01X101150Y-1341818D01*
G01X101150Y-1231819D01*
G01X41151Y-1231819D01*
G37*
G36*
G01X481147Y-1341818D02*
G01X481147Y-1231819D01*
G01X451145Y-1231819D01*
G01X451145Y-1341818D01*
G01X481147Y-1341818D01*
G37*
G36*
G01X601170Y-1231819D02*
G01X601170Y-1341818D01*
G01X661170Y-1341818D01*
G01X661170Y-1231819D01*
G01X601170Y-1231819D01*
G37*
G36*
G01X741154Y-1341818D02*
G01X741154Y-1231819D01*
G01X681154Y-1231819D01*
G01X681154Y-1341818D01*
G01X741154Y-1341818D01*
G37*
G36*
G01X431160Y-1341818D02*
G01X431160Y-1231819D01*
G01X401157Y-1231819D01*
G01X401157Y-1341818D01*
G01X431160Y-1341818D01*
G37*
G36*
G01X381147Y-1341818D02*
G01X381147Y-1231819D01*
G01X351145Y-1231819D01*
G01X351145Y-1341818D01*
G01X381147Y-1341818D01*
G37*
G36*
G01X121161Y-1231819D02*
G01X121161Y-1341818D01*
G01X181160Y-1341818D01*
G01X181160Y-1231819D01*
G01X121161Y-1231819D01*
G37*
G36*
G01X331160Y-1341818D02*
G01X331160Y-1231819D01*
G01X301158Y-1231819D01*
G01X301158Y-1341818D01*
G01X331160Y-1341818D01*
G37*
G36*
G01X281173Y-1341818D02*
G01X281173Y-1231819D01*
G01X251170Y-1231819D01*
G01X251170Y-1341818D01*
G01X281173Y-1341818D01*
G37*
G36*
G01X231160Y-1341818D02*
G01X231160Y-1231819D01*
G01X201158Y-1231819D01*
G01X201158Y-1341818D01*
G01X231160Y-1341818D01*
G37*
G36*
G01X828134Y-1241979D02*
G01X825147Y-1241829D01*
G01X822155Y-1241829D01*
G01X819168Y-1241979D01*
G01X816191Y-1242276D01*
G01X813232Y-1242723D01*
G01X810301Y-1243315D01*
G01X807400Y-1244054D01*
G01X804542Y-1244935D01*
G01X801731Y-1245959D01*
G01X798975Y-1247120D01*
G01X796277Y-1248418D01*
G01X793651Y-1249850D01*
G01X791098Y-1251410D01*
G01X788627Y-1253094D01*
G01X786242Y-1254902D01*
G01X783951Y-1256825D01*
G01X781756Y-1258860D01*
G01X779668Y-1261001D01*
G01X777687Y-1263244D01*
G01X775823Y-1265583D01*
G01X774078Y-1268011D01*
G01X772455Y-1270526D01*
G01X770959Y-1273117D01*
G01X769592Y-1275778D01*
G01X768363Y-1278504D01*
G01X767271Y-1281290D01*
G01X766315Y-1284125D01*
G01X765505Y-1287005D01*
G01X764840Y-1289921D01*
G01X764322Y-1292868D01*
G01X763948Y-1295837D01*
G01X763725Y-1298821D01*
G01X763651Y-1301811D01*
G01X763651Y-1381811D01*
G01X763725Y-1384800D01*
G01X763948Y-1387785D01*
G01X764322Y-1390754D01*
G01X764840Y-1393701D01*
G01X765505Y-1396616D01*
G01X766315Y-1399497D01*
G01X767271Y-1402331D01*
G01X768363Y-1405118D01*
G01X769592Y-1407843D01*
G01X770959Y-1410505D01*
G01X772455Y-1413096D01*
G01X774078Y-1415611D01*
G01X775823Y-1418039D01*
G01X777687Y-1420378D01*
G01X779668Y-1422621D01*
G01X781756Y-1424762D01*
G01X783951Y-1426797D01*
G01X786242Y-1428720D01*
G01X788627Y-1430528D01*
G01X791098Y-1432212D01*
G01X793651Y-1433772D01*
G01X796277Y-1435204D01*
G01X798975Y-1436502D01*
G01X801731Y-1437663D01*
G01X804542Y-1438686D01*
G01X807400Y-1439568D01*
G01X810301Y-1440307D01*
G01X813232Y-1440899D01*
G01X816191Y-1441346D01*
G01X819168Y-1441643D01*
G01X822155Y-1441793D01*
G01X825147Y-1441793D01*
G01X828134Y-1441643D01*
G01X831111Y-1441346D01*
G01X834070Y-1440899D01*
G01X837001Y-1440307D01*
G01X839902Y-1439568D01*
G01X842759Y-1438686D01*
G01X845571Y-1437663D01*
G01X848327Y-1436502D01*
G01X851024Y-1435204D01*
G01X853651Y-1433772D01*
G01X856204Y-1432212D01*
G01X858675Y-1430528D01*
G01X861060Y-1428720D01*
G01X863351Y-1426797D01*
G01X865546Y-1424762D01*
G01X867634Y-1422621D01*
G01X869615Y-1420378D01*
G01X871479Y-1418039D01*
G01X873224Y-1415611D01*
G01X874847Y-1413096D01*
G01X876343Y-1410505D01*
G01X877710Y-1407843D01*
G01X878939Y-1405118D01*
G01X880031Y-1402331D01*
G01X880986Y-1399497D01*
G01X881797Y-1396616D01*
G01X882462Y-1393701D01*
G01X882980Y-1390754D01*
G01X883354Y-1387785D01*
G01X883577Y-1384800D01*
G01X883651Y-1381811D01*
G01X883651Y-1301811D01*
G01X883577Y-1298821D01*
G01X883354Y-1295837D01*
G01X882980Y-1292868D01*
G01X882462Y-1289921D01*
G01X881797Y-1287005D01*
G01X880986Y-1284125D01*
G01X880031Y-1281290D01*
G01X878939Y-1278504D01*
G01X877710Y-1275778D01*
G01X876343Y-1273117D01*
G01X874847Y-1270526D01*
G01X873224Y-1268011D01*
G01X871479Y-1265583D01*
G01X869615Y-1263244D01*
G01X867634Y-1261001D01*
G01X865546Y-1258860D01*
G01X863351Y-1256825D01*
G01X861060Y-1254902D01*
G01X858675Y-1253094D01*
G01X856204Y-1251410D01*
G01X853651Y-1249850D01*
G01X851024Y-1248418D01*
G01X848327Y-1247120D01*
G01X845571Y-1245959D01*
G01X842759Y-1244935D01*
G01X839902Y-1244054D01*
G01X837001Y-1243315D01*
G01X834070Y-1242723D01*
G01X831111Y-1242276D01*
G01X828134Y-1241979D01*
G37*
G36*
G01X-42842Y-1241829D02*
G01X-45829Y-1241979D01*
G01X-48806Y-1242276D01*
G01X-51765Y-1242723D01*
G01X-54696Y-1243315D01*
G01X-57597Y-1244054D01*
G01X-60455Y-1244935D01*
G01X-63266Y-1245959D01*
G01X-66022Y-1247120D01*
G01X-68720Y-1248418D01*
G01X-71346Y-1249850D01*
G01X-73899Y-1251410D01*
G01X-76370Y-1253094D01*
G01X-78755Y-1254902D01*
G01X-81046Y-1256825D01*
G01X-83241Y-1258860D01*
G01X-85329Y-1261001D01*
G01X-87310Y-1263244D01*
G01X-89174Y-1265583D01*
G01X-90919Y-1268011D01*
G01X-92542Y-1270526D01*
G01X-94038Y-1273117D01*
G01X-95405Y-1275778D01*
G01X-96634Y-1278504D01*
G01X-97726Y-1281290D01*
G01X-98682Y-1284125D01*
G01X-99492Y-1287005D01*
G01X-100157Y-1289921D01*
G01X-100675Y-1292868D01*
G01X-101049Y-1295837D01*
G01X-101272Y-1298821D01*
G01X-101346Y-1301811D01*
G01X-101346Y-1381811D01*
G01X-101272Y-1384800D01*
G01X-101049Y-1387785D01*
G01X-100675Y-1390754D01*
G01X-100157Y-1393701D01*
G01X-99492Y-1396616D01*
G01X-98682Y-1399497D01*
G01X-97726Y-1402331D01*
G01X-96634Y-1405118D01*
G01X-95405Y-1407843D01*
G01X-94038Y-1410505D01*
G01X-92542Y-1413096D01*
G01X-90919Y-1415611D01*
G01X-89174Y-1418039D01*
G01X-87310Y-1420378D01*
G01X-85329Y-1422621D01*
G01X-83241Y-1424762D01*
G01X-81046Y-1426797D01*
G01X-78755Y-1428720D01*
G01X-76370Y-1430528D01*
G01X-73899Y-1432212D01*
G01X-71346Y-1433772D01*
G01X-68720Y-1435204D01*
G01X-66022Y-1436502D01*
G01X-63266Y-1437663D01*
G01X-60455Y-1438686D01*
G01X-57597Y-1439568D01*
G01X-54696Y-1440307D01*
G01X-51765Y-1440899D01*
G01X-48806Y-1441346D01*
G01X-45829Y-1441643D01*
G01X-42842Y-1441793D01*
G01X-39850Y-1441793D01*
G01X-36863Y-1441643D01*
G01X-33886Y-1441346D01*
G01X-30927Y-1440899D01*
G01X-27996Y-1440307D01*
G01X-25095Y-1439568D01*
G01X-22238Y-1438686D01*
G01X-19426Y-1437663D01*
G01X-16670Y-1436502D01*
G01X-13973Y-1435204D01*
G01X-11346Y-1433772D01*
G01X-8793Y-1432212D01*
G01X-6322Y-1430528D01*
G01X-3937Y-1428720D01*
G01X-1646Y-1426797D01*
G01X549Y-1424762D01*
G01X2637Y-1422621D01*
G01X4618Y-1420378D01*
G01X6482Y-1418039D01*
G01X8227Y-1415611D01*
G01X9850Y-1413096D01*
G01X11346Y-1410505D01*
G01X12713Y-1407843D01*
G01X13942Y-1405118D01*
G01X15034Y-1402331D01*
G01X15989Y-1399497D01*
G01X16800Y-1396616D01*
G01X17465Y-1393701D01*
G01X17983Y-1390754D01*
G01X18357Y-1387785D01*
G01X18580Y-1384800D01*
G01X18654Y-1381811D01*
G01X18654Y-1301811D01*
G01X18580Y-1298821D01*
G01X18357Y-1295837D01*
G01X17983Y-1292868D01*
G01X17465Y-1289921D01*
G01X16800Y-1287005D01*
G01X15989Y-1284125D01*
G01X15034Y-1281290D01*
G01X13942Y-1278504D01*
G01X12713Y-1275778D01*
G01X11346Y-1273117D01*
G01X9850Y-1270526D01*
G01X8227Y-1268011D01*
G01X6482Y-1265583D01*
G01X4618Y-1263244D01*
G01X2637Y-1261001D01*
G01X549Y-1258860D01*
G01X-1646Y-1256825D01*
G01X-3937Y-1254902D01*
G01X-6322Y-1253094D01*
G01X-8793Y-1251410D01*
G01X-11346Y-1249850D01*
G01X-13973Y-1248418D01*
G01X-16670Y-1247120D01*
G01X-19426Y-1245959D01*
G01X-22238Y-1244935D01*
G01X-25095Y-1244054D01*
G01X-27996Y-1243315D01*
G01X-30927Y-1242723D01*
G01X-33886Y-1242276D01*
G01X-36863Y-1241979D01*
G01X-39850Y-1241829D01*
G01X-42842Y-1241829D01*
G37*
G36*
G01X-36863Y-1686994D02*
G01X-39850Y-1686844D01*
G01X-42842Y-1686844D01*
G01X-45829Y-1686994D01*
G01X-48806Y-1687292D01*
G01X-51765Y-1687739D01*
G01X-54696Y-1688330D01*
G01X-57597Y-1689070D01*
G01X-60455Y-1689951D01*
G01X-63266Y-1690975D01*
G01X-66022Y-1692135D01*
G01X-68720Y-1693433D01*
G01X-71346Y-1694866D01*
G01X-73899Y-1696425D01*
G01X-76370Y-1698109D01*
G01X-78755Y-1699918D01*
G01X-81046Y-1701841D01*
G01X-83241Y-1703875D01*
G01X-85329Y-1706016D01*
G01X-87310Y-1708259D01*
G01X-89174Y-1710599D01*
G01X-90919Y-1713027D01*
G01X-92542Y-1715541D01*
G01X-94038Y-1718132D01*
G01X-95405Y-1720794D01*
G01X-96634Y-1723520D01*
G01X-97726Y-1726306D01*
G01X-98682Y-1729141D01*
G01X-99492Y-1732021D01*
G01X-100157Y-1734937D01*
G01X-100675Y-1737883D01*
G01X-101049Y-1740852D01*
G01X-101272Y-1743837D01*
G01X-101346Y-1746827D01*
G01X-101346Y-1776827D01*
G01X-101272Y-1779816D01*
G01X-101049Y-1782801D01*
G01X-100675Y-1785770D01*
G01X-100157Y-1788716D01*
G01X-99492Y-1791632D01*
G01X-98682Y-1794513D01*
G01X-97726Y-1797347D01*
G01X-96634Y-1800134D01*
G01X-95405Y-1802859D01*
G01X-94038Y-1805521D01*
G01X-92542Y-1808112D01*
G01X-90919Y-1810626D01*
G01X-89174Y-1813055D01*
G01X-87310Y-1815394D01*
G01X-85329Y-1817637D01*
G01X-83241Y-1819778D01*
G01X-81046Y-1821812D01*
G01X-78755Y-1823735D01*
G01X-76370Y-1825544D01*
G01X-73899Y-1827228D01*
G01X-71346Y-1828787D01*
G01X-68720Y-1830220D01*
G01X-66022Y-1831518D01*
G01X-63266Y-1832679D01*
G01X-60455Y-1833702D01*
G01X-57597Y-1834584D01*
G01X-54696Y-1835323D01*
G01X-51765Y-1835915D01*
G01X-48806Y-1836362D01*
G01X-45829Y-1836659D01*
G01X-42842Y-1836809D01*
G01X-39850Y-1836809D01*
G01X-36863Y-1836659D01*
G01X-33886Y-1836362D01*
G01X-30927Y-1835915D01*
G01X-27996Y-1835323D01*
G01X-25095Y-1834584D01*
G01X-22238Y-1833702D01*
G01X-19426Y-1832679D01*
G01X-16670Y-1831518D01*
G01X-13973Y-1830220D01*
G01X-11346Y-1828787D01*
G01X-8793Y-1827228D01*
G01X-6322Y-1825544D01*
G01X-3937Y-1823735D01*
G01X-1646Y-1821812D01*
G01X549Y-1819778D01*
G01X2637Y-1817637D01*
G01X4618Y-1815394D01*
G01X6482Y-1813055D01*
G01X8227Y-1810626D01*
G01X9850Y-1808112D01*
G01X11346Y-1805521D01*
G01X12713Y-1802859D01*
G01X13942Y-1800134D01*
G01X15034Y-1797347D01*
G01X15989Y-1794513D01*
G01X16800Y-1791632D01*
G01X17465Y-1788716D01*
G01X17983Y-1785770D01*
G01X18357Y-1782801D01*
G01X18580Y-1779816D01*
G01X18654Y-1776827D01*
G01X18654Y-1746827D01*
G01X18580Y-1743837D01*
G01X18357Y-1740852D01*
G01X17983Y-1737883D01*
G01X17465Y-1734937D01*
G01X16800Y-1732021D01*
G01X15989Y-1729141D01*
G01X15034Y-1726306D01*
G01X13942Y-1723520D01*
G01X12713Y-1720794D01*
G01X11346Y-1718132D01*
G01X9850Y-1715541D01*
G01X8227Y-1713027D01*
G01X6482Y-1710599D01*
G01X4618Y-1708259D01*
G01X2637Y-1706016D01*
G01X549Y-1703875D01*
G01X-1646Y-1701841D01*
G01X-3937Y-1699918D01*
G01X-6322Y-1698109D01*
G01X-8793Y-1696425D01*
G01X-11346Y-1694866D01*
G01X-13973Y-1693433D01*
G01X-16670Y-1692135D01*
G01X-19426Y-1690975D01*
G01X-22238Y-1689951D01*
G01X-25095Y-1689070D01*
G01X-27996Y-1688330D01*
G01X-30927Y-1687739D01*
G01X-33886Y-1687292D01*
G01X-36863Y-1686994D01*
G37*
G36*
G01X822155Y-1686844D02*
G01X819168Y-1686994D01*
G01X816191Y-1687292D01*
G01X813232Y-1687739D01*
G01X810301Y-1688330D01*
G01X807400Y-1689070D01*
G01X804542Y-1689951D01*
G01X801731Y-1690975D01*
G01X798975Y-1692135D01*
G01X796277Y-1693433D01*
G01X793651Y-1694866D01*
G01X791098Y-1696425D01*
G01X788627Y-1698109D01*
G01X786242Y-1699918D01*
G01X783951Y-1701841D01*
G01X781756Y-1703875D01*
G01X779668Y-1706016D01*
G01X777687Y-1708259D01*
G01X775823Y-1710599D01*
G01X774078Y-1713027D01*
G01X772455Y-1715541D01*
G01X770959Y-1718132D01*
G01X769592Y-1720794D01*
G01X768363Y-1723520D01*
G01X767271Y-1726306D01*
G01X766315Y-1729141D01*
G01X765505Y-1732021D01*
G01X764840Y-1734937D01*
G01X764322Y-1737883D01*
G01X763948Y-1740852D01*
G01X763725Y-1743837D01*
G01X763651Y-1746827D01*
G01X763651Y-1776827D01*
G01X763725Y-1779816D01*
G01X763948Y-1782801D01*
G01X764322Y-1785770D01*
G01X764840Y-1788716D01*
G01X765505Y-1791632D01*
G01X766315Y-1794513D01*
G01X767271Y-1797347D01*
G01X768363Y-1800134D01*
G01X769592Y-1802859D01*
G01X770959Y-1805521D01*
G01X772455Y-1808112D01*
G01X774078Y-1810626D01*
G01X775823Y-1813055D01*
G01X777687Y-1815394D01*
G01X779668Y-1817637D01*
G01X781756Y-1819778D01*
G01X783951Y-1821812D01*
G01X786242Y-1823735D01*
G01X788627Y-1825544D01*
G01X791098Y-1827228D01*
G01X793651Y-1828787D01*
G01X796277Y-1830220D01*
G01X798975Y-1831518D01*
G01X801731Y-1832679D01*
G01X804542Y-1833702D01*
G01X807400Y-1834584D01*
G01X810301Y-1835323D01*
G01X813232Y-1835915D01*
G01X816191Y-1836362D01*
G01X819168Y-1836659D01*
G01X822155Y-1836809D01*
G01X825147Y-1836809D01*
G01X828134Y-1836659D01*
G01X831111Y-1836362D01*
G01X834070Y-1835915D01*
G01X837001Y-1835323D01*
G01X839902Y-1834584D01*
G01X842759Y-1833702D01*
G01X845571Y-1832679D01*
G01X848327Y-1831518D01*
G01X851024Y-1830220D01*
G01X853651Y-1828787D01*
G01X856204Y-1827228D01*
G01X858675Y-1825544D01*
G01X861060Y-1823735D01*
G01X863351Y-1821812D01*
G01X865546Y-1819778D01*
G01X867634Y-1817637D01*
G01X869615Y-1815394D01*
G01X871479Y-1813055D01*
G01X873224Y-1810626D01*
G01X874847Y-1808112D01*
G01X876343Y-1805521D01*
G01X877710Y-1802859D01*
G01X878939Y-1800134D01*
G01X880031Y-1797347D01*
G01X880986Y-1794513D01*
G01X881797Y-1791632D01*
G01X882462Y-1788716D01*
G01X882980Y-1785770D01*
G01X883354Y-1782801D01*
G01X883577Y-1779816D01*
G01X883651Y-1776827D01*
G01X883651Y-1746827D01*
G01X883577Y-1743837D01*
G01X883354Y-1740852D01*
G01X882980Y-1737883D01*
G01X882462Y-1734937D01*
G01X881797Y-1732021D01*
G01X880986Y-1729141D01*
G01X880031Y-1726306D01*
G01X878939Y-1723520D01*
G01X877710Y-1720794D01*
G01X876343Y-1718132D01*
G01X874847Y-1715541D01*
G01X873224Y-1713027D01*
G01X871479Y-1710599D01*
G01X869615Y-1708259D01*
G01X867634Y-1706016D01*
G01X865546Y-1703875D01*
G01X863351Y-1701841D01*
G01X861060Y-1699918D01*
G01X858675Y-1698109D01*
G01X856204Y-1696425D01*
G01X853651Y-1694866D01*
G01X851024Y-1693433D01*
G01X848327Y-1692135D01*
G01X845571Y-1690975D01*
G01X842759Y-1689951D01*
G01X839902Y-1689070D01*
G01X837001Y-1688330D01*
G01X834070Y-1687739D01*
G01X831111Y-1687292D01*
G01X828134Y-1686994D01*
G01X825147Y-1686844D01*
G01X822155Y-1686844D01*
G37*
G36*
G01X3020392Y1206883D02*
G02X2900392Y1206883I-60000J0D01*
G01X2900392Y1396885D01*
G02X3020392Y1396885I60000J0D01*
G01X3020392Y1206883D01*
G37*
G36*
G01X1730377Y1206883D02*
G02X1610377Y1206883I-60000J0D01*
G01X1610377Y1396885D01*
G02X1730377Y1396885I60000J0D01*
G01X1730377Y1206883D01*
G37*
G36*
G01X2021385Y278891D02*
G01X1909386Y278891D01*
G01X1909386Y566892D01*
G01X2021385Y566892D01*
G01X2021385Y278891D01*
G37*
G36*
G01X2271384Y278891D02*
G01X2159385Y278891D01*
G01X2159385Y566892D01*
G01X2271384Y566892D01*
G01X2271384Y278891D01*
G37*
G36*
G01X2471384Y278891D02*
G01X2359385Y278891D01*
G01X2359385Y566892D01*
G01X2471384Y566892D01*
G01X2471384Y278891D01*
G37*
G36*
G01X2721383Y278891D02*
G01X2609384Y278891D01*
G01X2609384Y566892D01*
G01X2721383Y566892D01*
G01X2721383Y278891D01*
G37*
G36*
G01X3329314Y-1897988D02*
G02X3329314Y-1777989I0J60000D01*
G01X3519316Y-1777989D01*
G02X3519316Y-1897988I0J-60000D01*
G01X3329314Y-1897988D01*
G37*
G36*
G01X3329314Y-607973D02*
G02X3329314Y-487973I0J60000D01*
G01X3519316Y-487973D01*
G02X3519316Y-607973I0J-60000D01*
G01X3329314Y-607973D01*
G37*
G36*
G01X2401322Y-898981D02*
G01X2401322Y-786982D01*
G01X2689323Y-786982D01*
G01X2689323Y-898981D01*
G01X2401322Y-898981D01*
G37*
G36*
G01X2401322Y-1148980D02*
G01X2401322Y-1036982D01*
G01X2689323Y-1036982D01*
G01X2689323Y-1148980D01*
G01X2401322Y-1148980D01*
G37*
G36*
G01X2401322Y-1348980D02*
G01X2401322Y-1236981D01*
G01X2689323Y-1236981D01*
G01X2689323Y-1348980D01*
G01X2401322Y-1348980D01*
G37*
G36*
G01X2401322Y-1598980D02*
G01X2401322Y-1486981D01*
G01X2689323Y-1486981D01*
G01X2689323Y-1598980D01*
G01X2401322Y-1598980D01*
G37*
G36*
G01X-449206Y252926D02*
G01X-371425Y175145D01*
G01X-350210Y196360D01*
G01X-427991Y274141D01*
G01X-449206Y252926D01*
G37*
G36*
G01X-385574Y160995D02*
G01X-463355Y238777D01*
G01X-484570Y217562D01*
G01X-406789Y139780D01*
G01X-385574Y160995D01*
G37*
G36*
G01X-24936Y521633D02*
G01X-102717Y599415D01*
G01X-145144Y556989D01*
G01X-67362Y479207D01*
G01X-24936Y521633D01*
G37*
G36*
G01X-413842Y288290D02*
G01X-336060Y210509D01*
G01X-314845Y231724D01*
G01X-392627Y309505D01*
G01X-413842Y288290D01*
G37*
G36*
G01X-420929Y125640D02*
G01X-498711Y203422D01*
G01X-541137Y160995D01*
G01X-463355Y83214D01*
G01X-420929Y125640D01*
G37*
G36*
G01X-597695Y104438D02*
G01X-519913Y26656D01*
G01X-477487Y69082D01*
G01X-555268Y146864D01*
G01X-597695Y104438D01*
G37*
G36*
G01X-378496Y323637D02*
G01X-300714Y245855D01*
G01X-279499Y267070D01*
G01X-357281Y344852D01*
G01X-378496Y323637D01*
G37*
G36*
G01X-343131Y359001D02*
G01X-265350Y281219D01*
G01X-244135Y302434D01*
G01X-321916Y380216D01*
G01X-343131Y359001D01*
G37*
G36*
G01X-81511Y465058D02*
G01X-159293Y542839D01*
G01X-201719Y500413D01*
G01X-123938Y422631D01*
G01X-81511Y465058D01*
G37*
G36*
G01X-307785Y394347D02*
G01X-230003Y316566D01*
G01X-208788Y337781D01*
G01X-286570Y415562D01*
G01X-307785Y394347D01*
G37*
G36*
G01X-272439Y429694D02*
G01X-194657Y351912D01*
G01X-173442Y373127D01*
G01X-251224Y450908D01*
G01X-272439Y429694D01*
G37*
G36*
G01X-237074Y465058D02*
G01X-159293Y387276D01*
G01X-138078Y408491D01*
G01X-215860Y486273D01*
G01X-237074Y465058D01*
G37*
G36*
G01X-588601Y-27664D02*
G01X-586383Y-25658D01*
G01X-584267Y-23542D01*
G01X-582261Y-21324D01*
G01X-580366Y-19009D01*
G01X-578590Y-16600D01*
G01X-576936Y-14109D01*
G01X-575407Y-11535D01*
G01X-574010Y-8891D01*
G01X-572746Y-6179D01*
G01X-571618Y-3410D01*
G01X-570628Y-585D01*
G01X-569784Y2285D01*
G01X-569082Y5193D01*
G01X-568525Y8132D01*
G01X-568117Y11097D01*
G01X-567857Y14076D01*
G01X-567744Y17067D01*
G01X-567781Y20057D01*
G01X-567966Y23044D01*
G01X-568302Y26017D01*
G01X-568785Y28968D01*
G01X-569416Y31893D01*
G01X-570190Y34783D01*
G01X-571106Y37632D01*
G01X-572164Y40428D01*
G01X-573362Y43171D01*
G01X-574691Y45850D01*
G01X-576155Y48460D01*
G01X-577746Y50993D01*
G01X-579463Y53442D01*
G01X-581298Y55806D01*
G01X-583251Y58074D01*
G01X-585313Y60240D01*
G01X-641881Y116809D01*
G01X-644047Y118871D01*
G01X-646316Y120823D01*
G01X-648679Y122659D01*
G01X-651129Y124376D01*
G01X-653661Y125967D01*
G01X-656271Y127431D01*
G01X-658951Y128760D01*
G01X-661693Y129958D01*
G01X-664490Y131016D01*
G01X-667338Y131932D01*
G01X-670228Y132706D01*
G01X-673154Y133336D01*
G01X-676105Y133819D01*
G01X-679077Y134155D01*
G01X-682064Y134340D01*
G01X-685055Y134378D01*
G01X-688045Y134265D01*
G01X-691025Y134004D01*
G01X-693990Y133597D01*
G01X-696928Y133040D01*
G01X-699836Y132337D01*
G01X-702706Y131493D01*
G01X-705531Y130504D01*
G01X-708301Y129376D01*
G01X-711013Y128111D01*
G01X-713657Y126714D01*
G01X-716230Y125186D01*
G01X-718722Y123531D01*
G01X-721130Y121755D01*
G01X-723445Y119860D01*
G01X-725663Y117854D01*
G01X-727779Y115738D01*
G01X-729785Y113520D01*
G01X-731680Y111205D01*
G01X-733456Y108797D01*
G01X-735111Y106306D01*
G01X-736639Y103732D01*
G01X-738036Y101088D01*
G01X-739301Y98376D01*
G01X-740429Y95606D01*
G01X-741418Y92781D01*
G01X-742262Y89911D01*
G01X-742965Y87003D01*
G01X-743521Y84065D01*
G01X-743929Y81100D01*
G01X-744190Y78120D01*
G01X-744303Y75130D01*
G01X-744265Y72139D01*
G01X-744080Y69152D01*
G01X-743744Y66180D01*
G01X-743261Y63229D01*
G01X-742631Y60303D01*
G01X-741856Y57413D01*
G01X-740940Y54565D01*
G01X-739883Y51768D01*
G01X-738685Y49026D01*
G01X-737356Y46346D01*
G01X-735892Y43736D01*
G01X-734300Y41204D01*
G01X-732583Y38754D01*
G01X-730748Y36391D01*
G01X-728796Y34122D01*
G01X-726734Y31956D01*
G01X-670165Y-24612D01*
G01X-667999Y-26674D01*
G01X-665731Y-28626D01*
G01X-663367Y-30462D01*
G01X-660917Y-32179D01*
G01X-658385Y-33770D01*
G01X-655775Y-35234D01*
G01X-653096Y-36563D01*
G01X-650353Y-37761D01*
G01X-647557Y-38819D01*
G01X-644708Y-39735D01*
G01X-641818Y-40509D01*
G01X-638892Y-41140D01*
G01X-635942Y-41623D01*
G01X-632969Y-41959D01*
G01X-629982Y-42143D01*
G01X-626992Y-42181D01*
G01X-624001Y-42068D01*
G01X-621022Y-41808D01*
G01X-618056Y-41400D01*
G01X-615118Y-40843D01*
G01X-612210Y-40141D01*
G01X-609340Y-39297D01*
G01X-606515Y-38307D01*
G01X-603746Y-37179D01*
G01X-601033Y-35915D01*
G01X-598390Y-34517D01*
G01X-595816Y-32989D01*
G01X-593325Y-31335D01*
G01X-590916Y-29559D01*
G01X-588601Y-27664D01*
G37*
G36*
G01X27378Y588103D02*
G01X29384Y590322D01*
G01X31279Y592637D01*
G01X33055Y595045D01*
G01X34709Y597536D01*
G01X36238Y600110D01*
G01X37635Y602754D01*
G01X38900Y605466D01*
G01X40027Y608235D01*
G01X41017Y611061D01*
G01X41861Y613931D01*
G01X42563Y616838D01*
G01X43120Y619777D01*
G01X43528Y622742D01*
G01X43788Y625722D01*
G01X43902Y628712D01*
G01X43864Y631703D01*
G01X43679Y634689D01*
G01X43343Y637662D01*
G01X42860Y640613D01*
G01X42229Y643539D01*
G01X41455Y646428D01*
G01X40539Y649277D01*
G01X39481Y652073D01*
G01X38284Y654816D01*
G01X36954Y657496D01*
G01X35491Y660105D01*
G01X33899Y662638D01*
G01X32182Y665088D01*
G01X30347Y667451D01*
G01X28394Y669720D01*
G01X26333Y671886D01*
G01X-30236Y728454D01*
G01X-32402Y730516D01*
G01X-34670Y732468D01*
G01X-37034Y734304D01*
G01X-39484Y736021D01*
G01X-42016Y737612D01*
G01X-44626Y739076D01*
G01X-47306Y740405D01*
G01X-50048Y741603D01*
G01X-52845Y742661D01*
G01X-55693Y743577D01*
G01X-58583Y744351D01*
G01X-61509Y744981D01*
G01X-64460Y745464D01*
G01X-67432Y745800D01*
G01X-70419Y745985D01*
G01X-73409Y746023D01*
G01X-76400Y745910D01*
G01X-79379Y745649D01*
G01X-82345Y745242D01*
G01X-85283Y744685D01*
G01X-88191Y743983D01*
G01X-91061Y743139D01*
G01X-93886Y742149D01*
G01X-96656Y741021D01*
G01X-99368Y739757D01*
G01X-102011Y738359D01*
G01X-104585Y736831D01*
G01X-107076Y735177D01*
G01X-109485Y733400D01*
G01X-111800Y731506D01*
G01X-114018Y729499D01*
G01X-116134Y727384D01*
G01X-118140Y725166D01*
G01X-120035Y722850D01*
G01X-121811Y720442D01*
G01X-123465Y717951D01*
G01X-124994Y715377D01*
G01X-126391Y712733D01*
G01X-127655Y710021D01*
G01X-128783Y707252D01*
G01X-129773Y704427D01*
G01X-130617Y701556D01*
G01X-131319Y698649D01*
G01X-131876Y695710D01*
G01X-132284Y692745D01*
G01X-132544Y689765D01*
G01X-132657Y686775D01*
G01X-132620Y683784D01*
G01X-132435Y680798D01*
G01X-132099Y677825D01*
G01X-131616Y674874D01*
G01X-130985Y671949D01*
G01X-130211Y669059D01*
G01X-129295Y666210D01*
G01X-128237Y663414D01*
G01X-127039Y660671D01*
G01X-125710Y657991D01*
G01X-124247Y655382D01*
G01X-122655Y652849D01*
G01X-120938Y650399D01*
G01X-119103Y648036D01*
G01X-117150Y645767D01*
G01X-115088Y643601D01*
G01X-58520Y587033D01*
G01X-56354Y584971D01*
G01X-54086Y583019D01*
G01X-51722Y581183D01*
G01X-49272Y579466D01*
G01X-46740Y577875D01*
G01X-44130Y576411D01*
G01X-41450Y575082D01*
G01X-38708Y573884D01*
G01X-35911Y572826D01*
G01X-33063Y571910D01*
G01X-30173Y571136D01*
G01X-27247Y570506D01*
G01X-24296Y570023D01*
G01X-21324Y569687D01*
G01X-18337Y569502D01*
G01X-15347Y569464D01*
G01X-12356Y569577D01*
G01X-9377Y569838D01*
G01X-6411Y570245D01*
G01X-3473Y570802D01*
G01X-565Y571504D01*
G01X2305Y572348D01*
G01X5130Y573338D01*
G01X7900Y574466D01*
G01X10612Y575730D01*
G01X13256Y577128D01*
G01X15829Y578656D01*
G01X18320Y580310D01*
G01X20729Y582087D01*
G01X23044Y583982D01*
G01X25262Y585988D01*
G01X27378Y588103D01*
G37*
G36*
G01X-291630Y898655D02*
G01X-289411Y900661D01*
G01X-287296Y902777D01*
G01X-285289Y904995D01*
G01X-283395Y907310D01*
G01X-281618Y909719D01*
G01X-279964Y912210D01*
G01X-278436Y914784D01*
G01X-277038Y917427D01*
G01X-275774Y920139D01*
G01X-274646Y922909D01*
G01X-273656Y925734D01*
G01X-272812Y928604D01*
G01X-272110Y931512D01*
G01X-271553Y934450D01*
G01X-271146Y937416D01*
G01X-270885Y940395D01*
G01X-270772Y943386D01*
G01X-270810Y946376D01*
G01X-270995Y949363D01*
G01X-271331Y952335D01*
G01X-271814Y955286D01*
G01X-272444Y958212D01*
G01X-273218Y961102D01*
G01X-274134Y963951D01*
G01X-275192Y966747D01*
G01X-276390Y969490D01*
G01X-277719Y972169D01*
G01X-279183Y974779D01*
G01X-280774Y977311D01*
G01X-282491Y979761D01*
G01X-284327Y982125D01*
G01X-286279Y984393D01*
G01X-288341Y986559D01*
G01X-309554Y1007772D01*
G01X-311720Y1009834D01*
G01X-313989Y1011787D01*
G01X-316352Y1013622D01*
G01X-318802Y1015339D01*
G01X-321334Y1016930D01*
G01X-323944Y1018394D01*
G01X-326624Y1019723D01*
G01X-329366Y1020921D01*
G01X-332163Y1021979D01*
G01X-335011Y1022895D01*
G01X-337901Y1023669D01*
G01X-340827Y1024300D01*
G01X-343778Y1024783D01*
G01X-346750Y1025119D01*
G01X-349737Y1025304D01*
G01X-352728Y1025341D01*
G01X-355718Y1025228D01*
G01X-358698Y1024968D01*
G01X-361663Y1024560D01*
G01X-364601Y1024003D01*
G01X-367509Y1023301D01*
G01X-370379Y1022457D01*
G01X-373204Y1021467D01*
G01X-375974Y1020339D01*
G01X-378686Y1019075D01*
G01X-381330Y1017678D01*
G01X-383903Y1016149D01*
G01X-386395Y1014495D01*
G01X-388803Y1012719D01*
G01X-391118Y1010824D01*
G01X-393336Y1008818D01*
G01X-395452Y1006702D01*
G01X-397458Y1004484D01*
G01X-399353Y1002169D01*
G01X-401129Y999760D01*
G01X-402784Y997269D01*
G01X-404312Y994695D01*
G01X-405709Y992052D01*
G01X-406974Y989339D01*
G01X-408102Y986570D01*
G01X-409091Y983745D01*
G01X-409935Y980875D01*
G01X-410638Y977967D01*
G01X-411194Y975029D01*
G01X-411602Y972063D01*
G01X-411863Y969084D01*
G01X-411976Y966093D01*
G01X-411938Y963103D01*
G01X-411753Y960116D01*
G01X-411417Y957143D01*
G01X-410934Y954193D01*
G01X-410304Y951267D01*
G01X-409530Y948377D01*
G01X-408614Y945528D01*
G01X-407556Y942732D01*
G01X-406358Y939989D01*
G01X-405029Y937310D01*
G01X-403565Y934700D01*
G01X-401974Y932168D01*
G01X-400257Y929718D01*
G01X-398421Y927354D01*
G01X-396469Y925086D01*
G01X-394407Y922920D01*
G01X-373194Y901707D01*
G01X-371028Y899645D01*
G01X-368759Y897692D01*
G01X-366396Y895857D01*
G01X-363946Y894140D01*
G01X-361413Y892549D01*
G01X-358804Y891085D01*
G01X-356124Y889756D01*
G01X-353381Y888558D01*
G01X-350585Y887500D01*
G01X-347736Y886584D01*
G01X-344847Y885810D01*
G01X-341921Y885179D01*
G01X-338970Y884696D01*
G01X-335997Y884360D01*
G01X-333011Y884175D01*
G01X-330020Y884138D01*
G01X-327030Y884251D01*
G01X-324050Y884511D01*
G01X-321085Y884919D01*
G01X-318146Y885476D01*
G01X-315239Y886178D01*
G01X-312369Y887022D01*
G01X-309543Y888012D01*
G01X-306774Y889140D01*
G01X-304062Y890404D01*
G01X-301418Y891801D01*
G01X-298844Y893330D01*
G01X-296353Y894984D01*
G01X-293945Y896760D01*
G01X-291630Y898655D01*
G37*
G36*
G01X-898941Y291132D02*
G01X-896935Y293350D01*
G01X-895040Y295665D01*
G01X-893264Y298074D01*
G01X-891609Y300565D01*
G01X-890081Y303138D01*
G01X-888684Y305782D01*
G01X-887419Y308494D01*
G01X-886291Y311264D01*
G01X-885302Y314089D01*
G01X-884458Y316959D01*
G01X-883755Y319867D01*
G01X-883199Y322805D01*
G01X-882791Y325770D01*
G01X-882530Y328750D01*
G01X-882417Y331740D01*
G01X-882455Y334731D01*
G01X-882640Y337718D01*
G01X-882976Y340690D01*
G01X-883459Y343641D01*
G01X-884089Y346567D01*
G01X-884863Y349457D01*
G01X-885779Y352305D01*
G01X-886837Y355102D01*
G01X-888035Y357844D01*
G01X-889364Y360524D01*
G01X-890828Y363134D01*
G01X-892419Y365666D01*
G01X-894136Y368116D01*
G01X-895972Y370480D01*
G01X-897924Y372748D01*
G01X-899986Y374914D01*
G01X-921199Y396127D01*
G01X-923365Y398189D01*
G01X-925634Y400141D01*
G01X-927997Y401977D01*
G01X-930447Y403694D01*
G01X-932980Y405285D01*
G01X-935589Y406749D01*
G01X-938269Y408078D01*
G01X-941012Y409276D01*
G01X-943808Y410334D01*
G01X-946657Y411250D01*
G01X-949546Y412024D01*
G01X-952472Y412654D01*
G01X-955423Y413138D01*
G01X-958396Y413473D01*
G01X-961382Y413658D01*
G01X-964373Y413696D01*
G01X-967363Y413583D01*
G01X-970343Y413323D01*
G01X-973308Y412915D01*
G01X-976247Y412358D01*
G01X-979154Y411656D01*
G01X-982024Y410812D01*
G01X-984850Y409822D01*
G01X-987619Y408694D01*
G01X-990331Y407430D01*
G01X-992975Y406032D01*
G01X-995549Y404504D01*
G01X-998040Y402850D01*
G01X-1000448Y401073D01*
G01X-1002763Y399179D01*
G01X-1004982Y397172D01*
G01X-1007097Y395057D01*
G01X-1009104Y392839D01*
G01X-1010998Y390523D01*
G01X-1012775Y388115D01*
G01X-1014429Y385624D01*
G01X-1015957Y383050D01*
G01X-1017355Y380406D01*
G01X-1018619Y377694D01*
G01X-1019747Y374925D01*
G01X-1020737Y372100D01*
G01X-1021581Y369229D01*
G01X-1022283Y366322D01*
G01X-1022840Y363383D01*
G01X-1023247Y360418D01*
G01X-1023508Y357438D01*
G01X-1023621Y354448D01*
G01X-1023583Y351458D01*
G01X-1023398Y348471D01*
G01X-1023062Y345498D01*
G01X-1022579Y342547D01*
G01X-1021949Y339622D01*
G01X-1021175Y336732D01*
G01X-1020259Y333883D01*
G01X-1019201Y331087D01*
G01X-1018003Y328344D01*
G01X-1016674Y325664D01*
G01X-1015210Y323055D01*
G01X-1013619Y320522D01*
G01X-1011902Y318073D01*
G01X-1010066Y315709D01*
G01X-1008114Y313441D01*
G01X-1006052Y311274D01*
G01X-984839Y290061D01*
G01X-982673Y287999D01*
G01X-980404Y286047D01*
G01X-978041Y284212D01*
G01X-975591Y282495D01*
G01X-973059Y280903D01*
G01X-970449Y279439D01*
G01X-967769Y278110D01*
G01X-965027Y276912D01*
G01X-962230Y275855D01*
G01X-959382Y274939D01*
G01X-956492Y274164D01*
G01X-953566Y273534D01*
G01X-950615Y273051D01*
G01X-947643Y272715D01*
G01X-944656Y272530D01*
G01X-941665Y272492D01*
G01X-938675Y272605D01*
G01X-935695Y272866D01*
G01X-932730Y273274D01*
G01X-929792Y273830D01*
G01X-926884Y274533D01*
G01X-924014Y275377D01*
G01X-921189Y276366D01*
G01X-918419Y277494D01*
G01X-915707Y278759D01*
G01X-913063Y280156D01*
G01X-910490Y281685D01*
G01X-907998Y283339D01*
G01X-905590Y285115D01*
G01X-903275Y287010D01*
G01X-901057Y289016D01*
G01X-898941Y291132D01*
G37*
G36*
G01X-706496Y-927407D02*
G01X-596496Y-927407D01*
G01X-596496Y-897405D01*
G01X-706496Y-897405D01*
G01X-706496Y-927407D01*
G37*
G36*
G01X-596496Y-947417D02*
G01X-706496Y-947417D01*
G01X-706496Y-977420D01*
G01X-596496Y-977420D01*
G01X-596496Y-947417D01*
G37*
G36*
G01X-596496Y-437398D02*
G01X-706496Y-437398D01*
G01X-706496Y-497398D01*
G01X-596496Y-497398D01*
G01X-596496Y-437398D01*
G37*
G36*
G01X-706496Y-877395D02*
G01X-596496Y-877395D01*
G01X-596496Y-847392D01*
G01X-706496Y-847392D01*
G01X-706496Y-877395D01*
G37*
G36*
G01X-596496Y-997417D02*
G01X-706496Y-997417D01*
G01X-706496Y-1057417D01*
G01X-596496Y-1057417D01*
G01X-596496Y-997417D01*
G37*
G36*
G01X-706496Y-1137402D02*
G01X-596496Y-1137402D01*
G01X-596496Y-1077402D01*
G01X-706496Y-1077402D01*
G01X-706496Y-1137402D01*
G37*
G36*
G01X-706496Y-827408D02*
G01X-596496Y-827408D01*
G01X-596496Y-797405D01*
G01X-706496Y-797405D01*
G01X-706496Y-827408D01*
G37*
G36*
G01X-706496Y-777395D02*
G01X-596496Y-777395D01*
G01X-596496Y-747392D01*
G01X-706496Y-747392D01*
G01X-706496Y-777395D01*
G37*
G36*
G01X-596496Y-517408D02*
G01X-706496Y-517408D01*
G01X-706496Y-577408D01*
G01X-596496Y-577408D01*
G01X-596496Y-517408D01*
G37*
G36*
G01X-706496Y-727408D02*
G01X-596496Y-727408D01*
G01X-596496Y-697405D01*
G01X-706496Y-697405D01*
G01X-706496Y-727408D01*
G37*
G36*
G01X-706496Y-677421D02*
G01X-596496Y-677421D01*
G01X-596496Y-647418D01*
G01X-706496Y-647418D01*
G01X-706496Y-677421D01*
G37*
G36*
G01X-706496Y-627408D02*
G01X-596496Y-627408D01*
G01X-596496Y-597405D01*
G01X-706496Y-597405D01*
G01X-706496Y-627408D01*
G37*
G36*
G01X-606656Y-1224382D02*
G01X-606506Y-1221395D01*
G01X-606506Y-1218402D01*
G01X-606656Y-1215415D01*
G01X-606953Y-1212439D01*
G01X-607400Y-1209479D01*
G01X-607992Y-1206548D01*
G01X-608731Y-1203648D01*
G01X-609613Y-1200790D01*
G01X-610636Y-1197978D01*
G01X-611797Y-1195222D01*
G01X-613095Y-1192525D01*
G01X-614528Y-1189899D01*
G01X-616087Y-1187346D01*
G01X-617771Y-1184874D01*
G01X-619580Y-1182489D01*
G01X-621502Y-1180198D01*
G01X-623537Y-1178004D01*
G01X-625678Y-1175916D01*
G01X-627921Y-1173935D01*
G01X-630260Y-1172070D01*
G01X-632689Y-1170325D01*
G01X-635203Y-1168702D01*
G01X-637794Y-1167206D01*
G01X-640456Y-1165840D01*
G01X-643181Y-1164610D01*
G01X-645968Y-1163518D01*
G01X-648802Y-1162563D01*
G01X-651683Y-1161753D01*
G01X-654599Y-1161087D01*
G01X-657545Y-1160569D01*
G01X-660514Y-1160196D01*
G01X-663499Y-1159972D01*
G01X-666488Y-1159899D01*
G01X-746488Y-1159899D01*
G01X-749478Y-1159972D01*
G01X-752462Y-1160196D01*
G01X-755432Y-1160569D01*
G01X-758378Y-1161087D01*
G01X-761294Y-1161753D01*
G01X-764174Y-1162563D01*
G01X-767009Y-1163518D01*
G01X-769795Y-1164610D01*
G01X-772521Y-1165840D01*
G01X-775183Y-1167206D01*
G01X-777773Y-1168702D01*
G01X-780288Y-1170325D01*
G01X-782716Y-1172070D01*
G01X-785056Y-1173935D01*
G01X-787298Y-1175916D01*
G01X-789440Y-1178004D01*
G01X-791474Y-1180198D01*
G01X-793397Y-1182489D01*
G01X-795205Y-1184874D01*
G01X-796889Y-1187346D01*
G01X-798449Y-1189899D01*
G01X-799882Y-1192525D01*
G01X-801179Y-1195222D01*
G01X-802340Y-1197978D01*
G01X-803364Y-1200790D01*
G01X-804245Y-1203648D01*
G01X-804984Y-1206548D01*
G01X-805576Y-1209479D01*
G01X-806023Y-1212439D01*
G01X-806320Y-1215415D01*
G01X-806470Y-1218402D01*
G01X-806470Y-1221395D01*
G01X-806320Y-1224382D01*
G01X-806023Y-1227358D01*
G01X-805576Y-1230318D01*
G01X-804984Y-1233249D01*
G01X-804245Y-1236149D01*
G01X-803364Y-1239007D01*
G01X-802340Y-1241819D01*
G01X-801179Y-1244575D01*
G01X-799882Y-1247272D01*
G01X-798449Y-1249898D01*
G01X-796889Y-1252451D01*
G01X-795205Y-1254923D01*
G01X-793397Y-1257308D01*
G01X-791474Y-1259599D01*
G01X-789440Y-1261793D01*
G01X-787298Y-1263881D01*
G01X-785056Y-1265862D01*
G01X-782716Y-1267727D01*
G01X-780288Y-1269472D01*
G01X-777773Y-1271095D01*
G01X-775183Y-1272591D01*
G01X-772521Y-1273957D01*
G01X-769795Y-1275187D01*
G01X-767009Y-1276279D01*
G01X-764174Y-1277234D01*
G01X-761294Y-1278044D01*
G01X-758378Y-1278710D01*
G01X-755432Y-1279228D01*
G01X-752462Y-1279601D01*
G01X-749478Y-1279825D01*
G01X-746488Y-1279898D01*
G01X-666488Y-1279898D01*
G01X-663499Y-1279825D01*
G01X-660514Y-1279601D01*
G01X-657545Y-1279228D01*
G01X-654599Y-1278710D01*
G01X-651683Y-1278044D01*
G01X-648802Y-1277234D01*
G01X-645968Y-1276279D01*
G01X-643181Y-1275187D01*
G01X-640456Y-1273957D01*
G01X-637794Y-1272591D01*
G01X-635203Y-1271095D01*
G01X-632689Y-1269472D01*
G01X-630260Y-1267727D01*
G01X-627921Y-1265862D01*
G01X-625678Y-1263881D01*
G01X-623537Y-1261793D01*
G01X-621502Y-1259599D01*
G01X-619580Y-1257308D01*
G01X-617771Y-1254923D01*
G01X-616087Y-1252451D01*
G01X-614528Y-1249898D01*
G01X-613095Y-1247272D01*
G01X-611797Y-1244575D01*
G01X-610636Y-1241819D01*
G01X-609613Y-1239007D01*
G01X-608731Y-1236149D01*
G01X-607992Y-1233249D01*
G01X-607400Y-1230318D01*
G01X-606953Y-1227358D01*
G01X-606656Y-1224382D01*
G37*
G36*
G01X-606506Y-353405D02*
G01X-606656Y-350418D01*
G01X-606953Y-347442D01*
G01X-607400Y-344482D01*
G01X-607992Y-341551D01*
G01X-608731Y-338651D01*
G01X-609613Y-335793D01*
G01X-610636Y-332981D01*
G01X-611797Y-330225D01*
G01X-613095Y-327528D01*
G01X-614528Y-324902D01*
G01X-616087Y-322349D01*
G01X-617771Y-319877D01*
G01X-619580Y-317492D01*
G01X-621502Y-315201D01*
G01X-623537Y-313007D01*
G01X-625678Y-310919D01*
G01X-627921Y-308938D01*
G01X-630260Y-307073D01*
G01X-632689Y-305328D01*
G01X-635203Y-303705D01*
G01X-637794Y-302209D01*
G01X-640456Y-300843D01*
G01X-643181Y-299613D01*
G01X-645968Y-298521D01*
G01X-648802Y-297566D01*
G01X-651683Y-296756D01*
G01X-654599Y-296090D01*
G01X-657545Y-295572D01*
G01X-660514Y-295199D01*
G01X-663499Y-294975D01*
G01X-666488Y-294902D01*
G01X-746488Y-294902D01*
G01X-749478Y-294975D01*
G01X-752462Y-295199D01*
G01X-755432Y-295572D01*
G01X-758378Y-296090D01*
G01X-761294Y-296756D01*
G01X-764174Y-297566D01*
G01X-767009Y-298521D01*
G01X-769795Y-299613D01*
G01X-772521Y-300843D01*
G01X-775183Y-302209D01*
G01X-777773Y-303705D01*
G01X-780288Y-305328D01*
G01X-782716Y-307073D01*
G01X-785056Y-308938D01*
G01X-787298Y-310919D01*
G01X-789440Y-313007D01*
G01X-791474Y-315201D01*
G01X-793397Y-317492D01*
G01X-795205Y-319877D01*
G01X-796889Y-322349D01*
G01X-798449Y-324902D01*
G01X-799882Y-327528D01*
G01X-801179Y-330225D01*
G01X-802340Y-332981D01*
G01X-803364Y-335793D01*
G01X-804245Y-338651D01*
G01X-804984Y-341551D01*
G01X-805576Y-344482D01*
G01X-806023Y-347442D01*
G01X-806320Y-350418D01*
G01X-806470Y-353405D01*
G01X-806470Y-356398D01*
G01X-806320Y-359385D01*
G01X-806023Y-362361D01*
G01X-805576Y-365321D01*
G01X-804984Y-368252D01*
G01X-804245Y-371152D01*
G01X-803364Y-374010D01*
G01X-802340Y-376822D01*
G01X-801179Y-379578D01*
G01X-799882Y-382275D01*
G01X-798449Y-384901D01*
G01X-796889Y-387454D01*
G01X-795205Y-389926D01*
G01X-793397Y-392311D01*
G01X-791474Y-394602D01*
G01X-789440Y-396796D01*
G01X-787298Y-398884D01*
G01X-785056Y-400865D01*
G01X-782716Y-402730D01*
G01X-780288Y-404475D01*
G01X-777773Y-406098D01*
G01X-775183Y-407594D01*
G01X-772521Y-408960D01*
G01X-769795Y-410190D01*
G01X-767009Y-411282D01*
G01X-764174Y-412237D01*
G01X-761294Y-413047D01*
G01X-758378Y-413713D01*
G01X-755432Y-414231D01*
G01X-752462Y-414604D01*
G01X-749478Y-414828D01*
G01X-746488Y-414901D01*
G01X-666488Y-414901D01*
G01X-663499Y-414828D01*
G01X-660514Y-414604D01*
G01X-657545Y-414231D01*
G01X-654599Y-413713D01*
G01X-651683Y-413047D01*
G01X-648802Y-412237D01*
G01X-645968Y-411282D01*
G01X-643181Y-410190D01*
G01X-640456Y-408960D01*
G01X-637794Y-407594D01*
G01X-635203Y-406098D01*
G01X-632689Y-404475D01*
G01X-630260Y-402730D01*
G01X-627921Y-400865D01*
G01X-625678Y-398884D01*
G01X-623537Y-396796D01*
G01X-621502Y-394602D01*
G01X-619580Y-392311D01*
G01X-617771Y-389926D01*
G01X-616087Y-387454D01*
G01X-614528Y-384901D01*
G01X-613095Y-382275D01*
G01X-611797Y-379578D01*
G01X-610636Y-376822D01*
G01X-609613Y-374010D01*
G01X-608731Y-371152D01*
G01X-607992Y-368252D01*
G01X-607400Y-365321D01*
G01X-606953Y-362361D01*
G01X-606656Y-359385D01*
G01X-606506Y-356398D01*
G01X-606506Y-353405D01*
G37*
G36*
G01X-1051672Y-359385D02*
G01X-1051522Y-356398D01*
G01X-1051522Y-353405D01*
G01X-1051672Y-350418D01*
G01X-1051969Y-347442D01*
G01X-1052416Y-344482D01*
G01X-1053008Y-341551D01*
G01X-1053747Y-338651D01*
G01X-1054628Y-335793D01*
G01X-1055652Y-332981D01*
G01X-1056813Y-330225D01*
G01X-1058111Y-327528D01*
G01X-1059543Y-324902D01*
G01X-1061103Y-322349D01*
G01X-1062787Y-319877D01*
G01X-1064595Y-317492D01*
G01X-1066518Y-315201D01*
G01X-1068553Y-313007D01*
G01X-1070694Y-310919D01*
G01X-1072937Y-308938D01*
G01X-1075276Y-307073D01*
G01X-1077704Y-305328D01*
G01X-1080219Y-303705D01*
G01X-1082810Y-302209D01*
G01X-1085472Y-300843D01*
G01X-1088197Y-299613D01*
G01X-1090983Y-298521D01*
G01X-1093818Y-297566D01*
G01X-1096698Y-296756D01*
G01X-1099614Y-296090D01*
G01X-1102561Y-295572D01*
G01X-1105530Y-295199D01*
G01X-1108514Y-294975D01*
G01X-1111504Y-294902D01*
G01X-1141504Y-294902D01*
G01X-1144494Y-294975D01*
G01X-1147478Y-295199D01*
G01X-1150447Y-295572D01*
G01X-1153394Y-296090D01*
G01X-1156310Y-296756D01*
G01X-1159190Y-297566D01*
G01X-1162025Y-298521D01*
G01X-1164811Y-299613D01*
G01X-1167536Y-300843D01*
G01X-1170198Y-302209D01*
G01X-1172789Y-303705D01*
G01X-1175304Y-305328D01*
G01X-1177732Y-307073D01*
G01X-1180071Y-308938D01*
G01X-1182314Y-310919D01*
G01X-1184455Y-313007D01*
G01X-1186490Y-315201D01*
G01X-1188413Y-317492D01*
G01X-1190221Y-319877D01*
G01X-1191905Y-322349D01*
G01X-1193465Y-324902D01*
G01X-1194897Y-327528D01*
G01X-1196195Y-330225D01*
G01X-1197356Y-332981D01*
G01X-1198380Y-335793D01*
G01X-1199261Y-338651D01*
G01X-1200000Y-341551D01*
G01X-1200592Y-344482D01*
G01X-1201039Y-347442D01*
G01X-1201336Y-350418D01*
G01X-1201486Y-353405D01*
G01X-1201486Y-356398D01*
G01X-1201336Y-359385D01*
G01X-1201039Y-362361D01*
G01X-1200592Y-365321D01*
G01X-1200000Y-368252D01*
G01X-1199261Y-371152D01*
G01X-1198380Y-374010D01*
G01X-1197356Y-376822D01*
G01X-1196195Y-379578D01*
G01X-1194897Y-382275D01*
G01X-1193465Y-384901D01*
G01X-1191905Y-387454D01*
G01X-1190221Y-389926D01*
G01X-1188413Y-392311D01*
G01X-1186490Y-394602D01*
G01X-1184455Y-396796D01*
G01X-1182314Y-398884D01*
G01X-1180071Y-400865D01*
G01X-1177732Y-402730D01*
G01X-1175304Y-404475D01*
G01X-1172789Y-406098D01*
G01X-1170198Y-407594D01*
G01X-1167536Y-408960D01*
G01X-1164811Y-410190D01*
G01X-1162025Y-411282D01*
G01X-1159190Y-412237D01*
G01X-1156310Y-413047D01*
G01X-1153394Y-413713D01*
G01X-1150447Y-414231D01*
G01X-1147478Y-414604D01*
G01X-1144494Y-414828D01*
G01X-1141504Y-414901D01*
G01X-1111504Y-414901D01*
G01X-1108514Y-414828D01*
G01X-1105530Y-414604D01*
G01X-1102561Y-414231D01*
G01X-1099614Y-413713D01*
G01X-1096698Y-413047D01*
G01X-1093818Y-412237D01*
G01X-1090983Y-411282D01*
G01X-1088197Y-410190D01*
G01X-1085472Y-408960D01*
G01X-1082810Y-407594D01*
G01X-1080219Y-406098D01*
G01X-1077704Y-404475D01*
G01X-1075276Y-402730D01*
G01X-1072937Y-400865D01*
G01X-1070694Y-398884D01*
G01X-1068553Y-396796D01*
G01X-1066518Y-394602D01*
G01X-1064595Y-392311D01*
G01X-1062787Y-389926D01*
G01X-1061103Y-387454D01*
G01X-1059543Y-384901D01*
G01X-1058111Y-382275D01*
G01X-1056813Y-379578D01*
G01X-1055652Y-376822D01*
G01X-1054628Y-374010D01*
G01X-1053747Y-371152D01*
G01X-1053008Y-368252D01*
G01X-1052416Y-365321D01*
G01X-1051969Y-362361D01*
G01X-1051672Y-359385D01*
G37*
G36*
G01X-1051522Y-1218402D02*
G01X-1051672Y-1215415D01*
G01X-1051969Y-1212439D01*
G01X-1052416Y-1209479D01*
G01X-1053008Y-1206548D01*
G01X-1053747Y-1203648D01*
G01X-1054628Y-1200790D01*
G01X-1055652Y-1197978D01*
G01X-1056813Y-1195222D01*
G01X-1058111Y-1192525D01*
G01X-1059543Y-1189899D01*
G01X-1061103Y-1187346D01*
G01X-1062787Y-1184874D01*
G01X-1064595Y-1182489D01*
G01X-1066518Y-1180198D01*
G01X-1068553Y-1178004D01*
G01X-1070694Y-1175916D01*
G01X-1072937Y-1173935D01*
G01X-1075276Y-1172070D01*
G01X-1077704Y-1170325D01*
G01X-1080219Y-1168702D01*
G01X-1082810Y-1167206D01*
G01X-1085472Y-1165840D01*
G01X-1088197Y-1164610D01*
G01X-1090983Y-1163518D01*
G01X-1093818Y-1162563D01*
G01X-1096698Y-1161753D01*
G01X-1099614Y-1161087D01*
G01X-1102561Y-1160569D01*
G01X-1105530Y-1160196D01*
G01X-1108514Y-1159972D01*
G01X-1111504Y-1159899D01*
G01X-1141504Y-1159899D01*
G01X-1144494Y-1159972D01*
G01X-1147478Y-1160196D01*
G01X-1150447Y-1160569D01*
G01X-1153394Y-1161087D01*
G01X-1156310Y-1161753D01*
G01X-1159190Y-1162563D01*
G01X-1162025Y-1163518D01*
G01X-1164811Y-1164610D01*
G01X-1167536Y-1165840D01*
G01X-1170198Y-1167206D01*
G01X-1172789Y-1168702D01*
G01X-1175304Y-1170325D01*
G01X-1177732Y-1172070D01*
G01X-1180071Y-1173935D01*
G01X-1182314Y-1175916D01*
G01X-1184455Y-1178004D01*
G01X-1186490Y-1180198D01*
G01X-1188413Y-1182489D01*
G01X-1190221Y-1184874D01*
G01X-1191905Y-1187346D01*
G01X-1193465Y-1189899D01*
G01X-1194897Y-1192525D01*
G01X-1196195Y-1195222D01*
G01X-1197356Y-1197978D01*
G01X-1198380Y-1200790D01*
G01X-1199261Y-1203648D01*
G01X-1200000Y-1206548D01*
G01X-1200592Y-1209479D01*
G01X-1201039Y-1212439D01*
G01X-1201336Y-1215415D01*
G01X-1201486Y-1218402D01*
G01X-1201486Y-1221395D01*
G01X-1201336Y-1224382D01*
G01X-1201039Y-1227358D01*
G01X-1200592Y-1230318D01*
G01X-1200000Y-1233249D01*
G01X-1199261Y-1236149D01*
G01X-1198380Y-1239007D01*
G01X-1197356Y-1241819D01*
G01X-1196195Y-1244575D01*
G01X-1194897Y-1247272D01*
G01X-1193465Y-1249898D01*
G01X-1191905Y-1252451D01*
G01X-1190221Y-1254923D01*
G01X-1188413Y-1257308D01*
G01X-1186490Y-1259599D01*
G01X-1184455Y-1261793D01*
G01X-1182314Y-1263881D01*
G01X-1180071Y-1265862D01*
G01X-1177732Y-1267727D01*
G01X-1175304Y-1269472D01*
G01X-1172789Y-1271095D01*
G01X-1170198Y-1272591D01*
G01X-1167536Y-1273957D01*
G01X-1164811Y-1275187D01*
G01X-1162025Y-1276279D01*
G01X-1159190Y-1277234D01*
G01X-1156310Y-1278044D01*
G01X-1153394Y-1278710D01*
G01X-1150447Y-1279228D01*
G01X-1147478Y-1279601D01*
G01X-1144494Y-1279825D01*
G01X-1141504Y-1279898D01*
G01X-1111504Y-1279898D01*
G01X-1108514Y-1279825D01*
G01X-1105530Y-1279601D01*
G01X-1102561Y-1279228D01*
G01X-1099614Y-1278710D01*
G01X-1096698Y-1278044D01*
G01X-1093818Y-1277234D01*
G01X-1090983Y-1276279D01*
G01X-1088197Y-1275187D01*
G01X-1085472Y-1273957D01*
G01X-1082810Y-1272591D01*
G01X-1080219Y-1271095D01*
G01X-1077704Y-1269472D01*
G01X-1075276Y-1267727D01*
G01X-1072937Y-1265862D01*
G01X-1070694Y-1263881D01*
G01X-1068553Y-1261793D01*
G01X-1066518Y-1259599D01*
G01X-1064595Y-1257308D01*
G01X-1062787Y-1254923D01*
G01X-1061103Y-1252451D01*
G01X-1059543Y-1249898D01*
G01X-1058111Y-1247272D01*
G01X-1056813Y-1244575D01*
G01X-1055652Y-1241819D01*
G01X-1054628Y-1239007D01*
G01X-1053747Y-1236149D01*
G01X-1053008Y-1233249D01*
G01X-1052416Y-1230318D01*
G01X-1051969Y-1227358D01*
G01X-1051672Y-1224382D01*
G01X-1051522Y-1221395D01*
G01X-1051522Y-1218402D01*
G37*

G04 Pad Start*
G54D10*
G01X-6502Y-1092200D03*
G01X133502Y-1092200D03*
G01X2533498Y114300D03*
G01X2673502Y114300D03*
G01X1657502Y-279400D03*
G01X1517498Y-279400D03*
G54D11*
G01X2497921Y-1929710D03*
G01X2497921Y-1789706D03*
G01X-396720Y-1369962D03*
G01X-396720Y-1229957D03*
G54D10*
G01X1378102Y-1879600D03*
G01X1238098Y-1879600D03*
G01X1390802Y-1587500D03*
G01X1250798Y-1587500D03*
G01X2190902Y-1905000D03*
G01X2050898Y-1905000D03*
G01X2216302Y-1511300D03*
G01X2076298Y-1511300D03*
G01X1797202Y-1892300D03*
G01X1657198Y-1892300D03*
G01X1797202Y-1587500D03*
G01X1657198Y-1587500D03*
G54D12*
G01X1509090Y-525704D03*
G01X1509090Y-578714D03*
G01X1509090Y-631698D03*
G01X1509090Y-684708D03*
G01X1509090Y-737692D03*
G01X1509090Y-790702D03*
G01X1509090Y-843712D03*
G01X1509090Y-896696D03*
G01X1869110Y-896696D03*
G01X1869110Y-843712D03*
G01X1869110Y-790702D03*
G01X1869110Y-737692D03*
G01X1869110Y-684708D03*
G01X1869110Y-631698D03*
G01X1869110Y-578714D03*
G01X1869110Y-525704D03*
G04 Pad End*

M02*

